<svg width="206px" height="206px" viewBox="897 195 206 206" version="1.1" xmlns="http://www.w3.org/2000/svg" xmlns:xlink="http://www.w3.org/1999/xlink">
    <!-- Generator: Sketch 39.1 (31720) - http://www.bohemiancoding.com/sketch -->
    <desc>Created with Sketch.</desc>
    <defs>
        <polygon id="path-1" points="-1.68392359e-13 0.299318042 204.700664 0.299318042 204.700664 204.987508 -1.68392359e-13 204.987508 -1.68392359e-13 0.299771554 -9.07079648e-05 204.987961 204.700573 204.987961 204.700573 0.299771554 -1.68392332e-13 0.299771554"></polygon>
        <polygon id="path-3" points="0 204.987508 204.700664 204.987508 204.700664 0.299318042 0 0.299318042"></polygon>
    </defs>
    <g id="Page-1" stroke="none" stroke-width="1" fill="none" fill-rule="evenodd" transform="translate(898.000000, 195.000000)">
        <g id="Group-3" transform="translate(0.000000, 0.607706)">
            <mask id="mask-2" fill="white">
                <use xlink:href="#path-1"></use>
            </mask>
            <g id="Clip-2"></g>
            <path d="M204.700573,102.642959 C204.700573,158.933799 158.643604,204.987961 102.351148,204.987961 C46.0577854,204.987961 -9.07079648e-05,158.933799 -9.07079648e-05,102.642959 C-9.07079648e-05,46.354841 46.0577854,0.299771554 102.351148,0.299771554 C158.643604,0.299771554 204.700573,46.354841 204.700573,102.642959" id="Fill-1" fill="#FFDB7A" mask="url(#mask-2)"></path>
        </g>
        <g id="Group-52" transform="translate(0.000000, 0.607706)">
            <path d="M129.489157,183.931118 C124.555551,183.931118 125.389157,178.929786 125.389157,178.929786 L125.389157,172.404653 L125.389157,153.301812 L103.653715,153.417911 L77.8944668,153.301812 L77.8944668,172.404653 L77.8944668,178.929786 C77.8944668,178.929786 78.728073,183.931118 73.7944668,183.931118 L62.5503075,183.931118 L62.5503075,187.31704 L102.996082,187.31704 L104.314976,187.31704 L140.732409,187.31704 L140.732409,183.931118 L129.489157,183.931118 L129.489157,183.931118 Z" id="Fill-4" fill="#FFFFFF"></path>
            <path d="M128.2685,183.796879 L128.266686,183.796879 C124.717283,183.028629 125.388522,178.929786 125.388522,178.929786 L125.388522,172.404653 L125.388522,153.301812 L103.65308,153.417911 L86.7614425,153.342628 C86.4793407,153.43968 86.2026814,153.538546 85.9505133,153.628341 L77.8947389,158.500876 L77.8947389,166.505366 L95.3587434,183.796879 L128.2685,183.796879 Z" id="Fill-6" fill="#576672"></path>
            <path d="M17.7075553,163.703296 C17.1596792,163.703296 16.7152102,163.257947 16.7152102,162.711011 L16.7152102,53.4481344 C16.7152102,52.9039197 17.1596792,52.4585708 17.7075553,52.4585708 L185.574436,52.4585708 C186.123219,52.4585708 186.568595,52.9039197 186.568595,53.4481344 L186.568595,162.711011 C186.568595,163.257947 186.123219,163.703296 185.574436,163.703296 L17.7075553,163.703296 Z" id="Fill-8" fill="#FFFFFF"></path>
            <path d="M185.574799,48.4310198 L17.7079181,48.4310198 C14.9349757,48.4310198 12.6854181,50.6786262 12.6854181,53.4486786 L12.6854181,162.710648 C12.6854181,165.485236 14.9349757,167.731028 17.7079181,167.731028 L185.574799,167.731028 C188.347741,167.731028 190.596392,165.485236 190.596392,162.710648 L190.596392,53.4495856 C190.596392,50.6786262 188.347741,48.4310198 185.574799,48.4310198 L185.574799,48.4310198 Z M20.7430066,159.677559 L182.53971,159.677559 L182.53971,56.4863032 L20.7430066,56.4863032 L20.7430066,159.677559 Z" id="Fill-10" fill="#192E2D"></path>
            <path d="" id="Fill-12" fill="#5A6D7A"></path>
            <path d="M190.326354,163.545201 L190.328168,163.545201 L190.326354,163.545201 Z" id="Fill-14" fill="#5A6D7A"></path>
            <polygon id="Fill-16" fill="#576672" points="37.8776504 53.3470011 49.4674071 159.719191 105.135792 159.719191 105.135792 53.5692221"></polygon>
            <polygon id="Fill-18" fill="#576672" points="168.160502 53.3470011 157.221122 159.719191 101.554551 159.719191 101.554551 53.5692221"></polygon>
            <polygon id="Fill-20" fill="#FFFFFF" points="49.5111283 30.0172459 49.5111283 84.2718156 49.5111283 84.694489 49.5111283 159.659146 157.193274 159.659146 157.193274 84.694489 157.193274 84.2718156 157.193274 30.0172459"></polygon>
            <mask id="mask-4" fill="white">
                <use xlink:href="#path-3"></use>
            </mask>
            <g id="Clip-23"></g>
            <polygon id="Fill-22" fill="#D2CFD6" mask="url(#mask-4)" points="49.5111283 30.4125271 157.193274 30.4125271 157.193274 21.8048659 49.5111283 21.8048659"></polygon>
            <path d="M53.3945177,26.1712812 C53.3945177,26.7490557 52.9228363,27.2188943 52.3441195,27.2188943 C51.7635885,27.2188943 51.2964425,26.7490557 51.2964425,26.1712812 C51.2964425,25.5907856 51.7635885,25.121854 52.3441195,25.121854 C52.9228363,25.121854 53.3945177,25.5907856 53.3945177,26.1712812" id="Fill-24" fill="#E44B55" mask="url(#mask-4)"></path>
            <path d="M57.0724535,26.1712812 C57.0724535,26.7490557 56.6025863,27.2188943 56.0256836,27.2188943 C55.4451527,27.2188943 54.9761925,26.7490557 54.9761925,26.1712812 C54.9761925,25.5907856 55.4451527,25.121854 56.0256836,25.121854 C56.6025863,25.121854 57.0724535,25.5907856 57.0724535,26.1712812" id="Fill-25" fill="#ECB818" mask="url(#mask-4)"></path>
            <path d="M60.7087544,26.1712812 C60.7087544,26.7490557 60.2379801,27.2188943 59.6601704,27.2188943 C59.0814535,27.2188943 58.6097721,26.7490557 58.6097721,26.1712812 C58.6097721,25.5907856 59.0814535,25.121854 59.6601704,25.121854 C60.2379801,25.121854 60.7087544,25.5907856 60.7087544,26.1712812" id="Fill-26" fill="#66B548" mask="url(#mask-4)"></path>
            <polygon id="Fill-27" fill="#BCB9BF" mask="url(#mask-4)" points="63.2561062 28.0823815 67.4286726 28.0823815 67.4286726 24.0379599 63.2561062 24.0379599"></polygon>
            <polygon id="Fill-28" fill="#BCB9BF" mask="url(#mask-4)" points="68.6033407 28.0823815 72.7759071 28.0823815 72.7759071 24.0379599 68.6033407 24.0379599"></polygon>
            <polygon id="Fill-29" fill="#E5E3EB" mask="url(#mask-4)" points="74.6916593 28.0823815 127.998916 28.0823815 127.998916 24.0379599 74.6916593 24.0379599"></polygon>
            <polygon id="Fill-30" fill="#E5E3EB" mask="url(#mask-4)" points="129.368606 28.0823815 154.014867 28.0823815 154.014867 24.0379599 129.368606 24.0379599"></polygon>
            <polygon id="Fill-31" fill="#C3D3E2" mask="url(#mask-4)" points="49.5111283 159.765994 157.193274 159.765994 157.193274 135.249125 49.5111283 135.249125"></polygon>
            <polygon id="Fill-32" fill="#929EAA" mask="url(#mask-4)" points="61.9417478 154.574186 79.4166372 154.574186 79.4166372 152.422724 61.9417478 152.422724"></polygon>
            <path d="M129.552925,153.856186 C129.552925,154.971826 128.647659,155.877036 127.531044,155.877036 C126.416243,155.877036 125.510978,154.971826 125.510978,153.856186 C125.510978,152.739639 126.416243,151.834428 127.531044,151.834428 C128.647659,151.834428 129.552925,152.739639 129.552925,153.856186" id="Fill-33" fill="#E5E3EB" mask="url(#mask-4)"></path>
            <path d="M134.883832,153.856186 C134.883832,154.971826 133.978566,155.877036 132.861951,155.877036 C131.744429,155.877036 130.841885,154.971826 130.841885,153.856186 C130.841885,152.739639 131.744429,151.834428 132.861951,151.834428 C133.978566,151.834428 134.883832,152.739639 134.883832,153.856186" id="Fill-34" fill="#E5E3EB" mask="url(#mask-4)"></path>
            <path d="M140.214648,153.856186 C140.214648,154.971826 139.309383,155.877036 138.192768,155.877036 C137.07706,155.877036 136.171794,154.971826 136.171794,153.856186 C136.171794,152.739639 137.07706,151.834428 138.192768,151.834428 C139.309383,151.834428 140.214648,152.739639 140.214648,153.856186" id="Fill-35" fill="#E5E3EB" mask="url(#mask-4)"></path>
            <path d="M145.544648,153.856186 C145.544648,154.971826 144.639383,155.877036 143.522768,155.877036 C142.406153,155.877036 141.502701,154.971826 141.502701,153.856186 C141.502701,152.739639 142.406153,151.834428 143.522768,151.834428 C144.639383,151.834428 145.544648,152.739639 145.544648,153.856186" id="Fill-36" fill="#E5E3EB" mask="url(#mask-4)"></path>
            <polygon id="Fill-37" fill="#C3D3E2" mask="url(#mask-4)" points="56.4920133 64.0567821 83.6871681 64.0567821 83.6871681 36.8623774 56.4920133 36.8623774"></polygon>
            <polygon id="Fill-38" fill="#C3D3E2" mask="url(#mask-4)" points="89.3183186 64.0567821 116.514381 64.0567821 116.514381 36.8623774 89.3183186 36.8623774"></polygon>
            <polygon id="Fill-39" fill="#C3D3E2" mask="url(#mask-4)" points="122.146438 64.0567821 149.3425 64.0567821 149.3425 36.8623774 122.146438 36.8623774"></polygon>
            <polygon id="Fill-40" fill="#C3D3E2" mask="url(#mask-4)" points="56.4920133 96.7441264 83.6871681 96.7441264 83.6871681 69.5497217 56.4920133 69.5497217"></polygon>
            <polygon id="Fill-41" fill="#C3D3E2" mask="url(#mask-4)" points="89.3183186 96.7441264 116.514381 96.7441264 116.514381 69.5497217 89.3183186 69.5497217"></polygon>
            <polygon id="Fill-42" fill="#C3D3E2" mask="url(#mask-4)" points="122.146438 96.7441264 149.3425 96.7441264 149.3425 69.5497217 122.146438 69.5497217"></polygon>
            <polygon id="Fill-43" fill="#C3D3E2" mask="url(#mask-4)" points="56.4920133 129.157549 83.6871681 129.157549 83.6871681 101.964052 56.4920133 101.964052"></polygon>
            <polygon id="Fill-44" fill="#C3D3E2" mask="url(#mask-4)" points="89.3183186 129.157549 116.514381 129.157549 116.514381 101.964052 89.3183186 101.964052"></polygon>
            <polygon id="Fill-45" fill="#C3D3E2" mask="url(#mask-4)" points="122.146438 129.157549 149.3425 129.157549 149.3425 101.964052 122.146438 101.964052"></polygon>
            <polygon id="Fill-46" fill="#192E2D" mask="url(#mask-4)" points="133.930673 115.327151 102.988372 84.3849216 104.591181 82.7813025 135.534389 113.723532"></polygon>
            <polygon id="Fill-47" fill="#192E2D" mask="url(#mask-4)" points="131.115551 116.504831 138.760418 118.552892 136.712232 110.908491"></polygon>
            <polygon id="Fill-48" fill="#192E2D" mask="url(#mask-4)" points="102.91635 84.312541 101.312633 82.708922 102.91635 81.1062099 104.520066 82.708922"></polygon>
            <path d="M78.1665,59.5641997 L74.8601947,56.2580959 L76.4630044,54.6544768 L79.7702168,57.9605806 L78.1665,59.5641997 Z M84.7800177,66.1764074 L81.4737124,62.8703035 L83.0765221,61.2675915 L86.3837345,64.5736953 L84.7800177,66.1764074 Z M91.3926283,72.7904291 L88.0872301,69.4834182 L89.6900398,67.8797991 L92.9963451,71.18681 L91.3926283,72.7904291 Z M98.006146,79.4026367 L94.6998407,76.0965329 L96.3026504,74.4929138 L99.6098628,77.7990176 L98.006146,79.4026367 Z" id="Fill-49" fill="#192E2D" mask="url(#mask-4)"></path>
            <polygon id="Fill-50" fill="#192E2D" mask="url(#mask-4)" points="71.5529823 52.9515385 69.9492655 51.3479194 71.5529823 49.7452074 73.1566991 51.3479194"></polygon>
            <path d="M72.9667566,48.542221 C71.8020664,47.3766946 69.9117124,47.3766946 68.7470221,48.542221 C67.5814248,49.7077473 67.5814248,51.597079 68.7470221,52.7616983 C69.9117124,53.9272246 71.8020664,53.9272246 72.9667566,52.7616983 C74.132354,51.597079 74.132354,49.7077473 72.9667566,48.542221" id="Fill-51" fill="#192E2D" mask="url(#mask-4)"></path>
        </g>
    </g>
</svg>
