<svg width="108px" height="103px" viewBox="662 520 108 103" version="1.1" xmlns="http://www.w3.org/2000/svg" xmlns:xlink="http://www.w3.org/1999/xlink">
    <!-- Generator: Sketch 39.1 (31720) - http://www.bohemiancoding.com/sketch -->
    <desc>Created with Sketch.</desc>
    <defs></defs>
    <g id="Page-1" stroke="none" stroke-width="1" fill="none" fill-rule="evenodd" transform="translate(662.000000, 520.000000)">
        <g id="Group-61" transform="translate(0.000000, 0.400242)">
            <path d="M85.6912779,47.8733436 L81.7993487,47.8733436 L81.7993487,6.04118502 C81.7993487,4.9647533 80.9491009,4.08755066 79.9055611,4.08755066 C78.8626142,4.08755066 78.0147381,4.9647533 78.0147381,6.04118502 L78.0147381,10.4224405 C78.0147381,13.6505463 75.5570832,16.2791806 72.5337823,16.2791806 C69.5152248,16.2791806 67.0516407,13.6505463 67.0516407,10.4224405 L67.0516407,6.04118502 C67.0516407,4.97962115 66.3241274,4.08755066 65.4626142,4.08755066 C64.6052513,4.08755066 63.8789239,4.97962115 63.8789239,6.04118502 L63.8789239,10.6109648 C63.8789239,13.8420441 61.4183044,16.4706784 58.3950035,16.4706784 C55.3740743,16.4706784 52.9104903,13.8420441 52.9104903,10.6109648 L52.9104903,6.04118502 C52.9104903,4.97962115 52.1853487,4.08755066 51.3250212,4.08755066 C50.463508,4.08755066 49.7365876,4.97962115 49.7365876,6.04118502 L49.7365876,10.0418238 C49.7365876,13.2711189 47.2789327,15.8979692 44.2562248,15.8991586 C41.232331,15.8991586 38.7746761,13.2711189 38.7746761,10.0418238 L38.7746761,6.04118502 C38.7746761,4.9647533 37.9007115,4.08755066 36.8298973,4.08755066 L36.7255434,4.08755066 C35.6541363,4.08755066 34.7801717,4.9647533 34.7801717,6.04118502 L34.7801717,19.2818899 L30.8864637,19.2818899 L30.8864637,6.04118502 C30.8864637,2.81010573 33.5048,0.181471366 36.7255434,0.181471366 L36.8298973,0.181471366 C40.048269,0.181471366 42.6654195,2.81010573 42.6654195,6.04118502 L42.6654195,10.0418238 C42.6654195,11.0998194 43.3935257,11.9942687 44.2562248,11.9942687 C45.1153664,11.9942687 45.8464372,11.0998194 45.8464372,10.0418238 L45.8464372,6.04118502 C45.8464372,2.81010573 48.3023133,0.181471366 51.3250212,0.181471366 C54.3501009,0.181471366 56.8071628,2.81010573 56.8071628,6.04118502 L56.8071628,10.6109648 C56.8071628,11.6701498 57.5358619,12.5657885 58.3950035,12.5657885 C59.2529593,12.5657885 59.9816584,11.6701498 59.9816584,10.6109648 L59.9816584,6.04118502 C59.9816584,2.81010573 62.4440566,0.181471366 65.4626142,0.181471366 C68.485915,0.181471366 70.9423841,2.81010573 70.9423841,6.04118502 L70.9423841,10.4224405 C70.9423841,11.4810308 71.6734549,12.3754802 72.5337823,12.3754802 C73.3941097,12.3754802 74.1222159,11.4810308 74.1222159,10.4224405 L74.1222159,6.04118502 C74.1222159,2.81010573 76.7174283,0.181471366 79.9055611,0.181471366 C83.0972513,0.181471366 85.6912779,2.81010573 85.6912779,6.04118502 L85.6912779,47.8733436 L85.6912779,47.8733436 Z" id="Fill-4" fill="#FFFFFF"></path>
            <path d="M89.2071177,70.9824295 L89.1768788,70.9277159 C88.8715248,70.3514383 88.2471796,69.0169009 87.9821442,67.3433767 L87.8564451,67.3082885 L87.8611885,49.5774956 C87.8997283,48.9768348 88.1576487,48.4517026 88.5626133,48.0740595 L84.0878434,48.0740595 L79.6083301,48.0740595 C80.0144805,48.4517026 80.2706221,48.9768348 80.3115336,49.5774956 L80.3192416,49.7107115 L80.3192416,67.3082885 L80.1870204,67.3433767 C79.9231708,69.0169009 79.2976398,70.3484648 78.9928788,70.9277159 L78.9341796,71.0300066 L64.6104097,94.6782004 C64.027569,95.6279581 64.0032593,96.2916586 64.1740204,96.5931784 C64.340631,96.8905352 64.9145779,97.2116806 66.030454,97.2116806 L102.139304,97.2116806 C103.256365,97.2116806 103.829127,96.8905352 103.999888,96.5931784 C104.16887,96.2916586 104.142188,95.6279581 103.56587,94.6746322 L89.2071177,70.9824295 Z" id="Fill-6" fill="#4C5D6C"></path>
            <path d="M66.0305133,100.03104 C63.9973894,100.03104 62.4676549,99.2995419 61.7241327,97.9745198 C60.9794248,96.6471189 61.1507788,94.9545639 62.2079558,93.2108634 L76.5228319,69.5894317 C76.8264071,69.0030441 77.5005575,67.5079339 77.5005575,65.800511 L77.5005575,64.9304449 L77.504115,64.9304449 L77.504115,49.6177577 L75.5338407,49.6177577 L75.5338407,43.8704449 L92.0834336,43.8704449 L92.0834336,49.6177577 L90.6675398,49.6177577 L90.6675398,64.9304449 L90.6699115,65.800511 C90.6699115,67.6048722 91.4294425,69.1701586 91.6618673,69.6084626 L105.96785,93.2144317 C107.022655,94.9557533 107.194009,96.6471189 106.448115,97.9733304 C105.703407,99.2995419 104.173673,100.03104 102.13877,100.03104 L66.0305133,100.03104 Z" id="Fill-8" fill="#FFFFFF"></path>
            <path d="M92.951054,43.0006762 L91.216169,43.0006762 L89.9550274,43.0006762 L84.0880805,43.0006762 L78.2163903,43.0006762 L76.4014611,43.0006762 L74.667169,43.0006762 L74.667169,44.7408084 L74.667169,48.7467996 L74.667169,50.4881211 L76.4014611,50.4881211 L76.6362575,50.4881211 L76.6362575,64.0606762 L76.6332929,65.8008084 C76.6332929,67.2947291 76.0451159,68.6197511 75.7658504,69.1645088 L61.4669832,92.7591784 C60.2580186,94.7544427 60.076585,96.8097731 60.9683372,98.3994427 C61.8589035,99.989707 63.7046646,100.900214 66.0306912,100.900214 L78.2436646,100.900214 L83.8432044,100.900214 L84.3335496,100.900214 L89.928346,100.900214 L102.138948,100.900214 C104.466753,100.900214 106.312514,99.989707 107.204859,98.3994427 C108.096019,96.8097731 107.915771,94.7556322 106.709771,92.7627467 L92.4067531,69.1585617 C92.1761071,68.7172841 91.5369389,67.3512269 91.5369389,65.8008084 L91.5369389,64.0606762 L91.5345673,64.0606762 L91.5345673,50.4881211 L92.951054,50.4881211 L92.951054,48.7467996 L92.951054,44.7408084 L92.951054,43.0006762 Z M91.216169,44.7408084 L91.216169,48.7467996 L89.8002752,48.7467996 L89.8002752,65.8008084 L89.802054,65.8008084 C89.802054,67.7615793 90.5864876,69.4339141 90.896585,70.0173282 L105.226284,93.6661167 C107.05485,96.6884515 105.668603,99.1618656 102.138948,99.1618656 L89.928346,99.1618656 L84.3335496,99.1618656 L83.8432044,99.1618656 L78.2436646,99.1618656 L66.0306912,99.1618656 C62.502815,99.1618656 61.1165673,96.6884515 62.9492841,93.6631432 L77.2783903,70.0173282 C77.5837442,69.4339141 78.367585,67.7615793 78.367585,65.8008084 L78.3711425,65.8008084 L78.3711425,48.7467996 L76.4014611,48.7467996 L76.4014611,44.7408084 L78.2163903,44.7408084 L84.0880805,44.7408084 L89.9550274,44.7408084 L91.216169,44.7408084 Z" id="Fill-10" fill="#FFFFFF"></path>
            <path d="M102.341667,94.2134317 L92.8733221,78.586141 L89.7907292,78.586141 C89.5926938,78.519533 89.546446,78.3232775 89.5381451,78.2120661 L89.5381451,76.9572203 L89.5345876,76.5831454 C89.5345876,75.9979471 89.0608442,75.5215815 88.4750389,75.5215815 L88.4702956,75.5215815 C87.8856761,75.5215815 87.4083752,75.9979471 87.4083752,76.5831454 L87.4083752,78.2120661 C87.4018531,78.3232775 87.3550124,78.519533 87.1551982,78.586141 L85.8318,78.586141 C85.6272425,78.519533 85.5798088,78.3232775 85.5732867,78.2120661 L85.5732867,76.9607885 L85.5732867,72.2262731 C85.5732867,71.6375066 85.0953929,71.1635198 84.5113664,71.1635198 L84.5054372,71.1635198 C83.9220035,71.1635198 83.4470743,71.6375066 83.4470743,72.2262731 L83.4470743,76.9607885 L83.4435168,76.9607885 L83.4435168,78.2120661 C83.4352159,78.3232775 83.390154,78.519533 83.1903398,78.586141 L81.834331,78.586141 C81.6321451,78.519533 81.5888619,78.3232775 81.581154,78.2120661 L81.581154,76.9607885 L81.5781894,76.9607885 L81.5781894,74.4041145 C81.5781894,73.8189163 81.104446,73.3437401 80.5180478,73.3437401 L80.5138973,73.3437401 C79.9274991,73.3437401 79.451977,73.8189163 79.451977,74.4041145 L79.451977,76.9607885 L79.451977,78.2120661 C79.4436761,78.3232775 79.3998,78.5231013 79.1993929,78.586141 L75.364977,78.586141 L65.6802159,94.1343348 C65.1922425,94.9443348 65.1708973,95.5015815 65.3108265,95.7549295 C65.4578708,96.0058987 65.9416938,96.2782775 66.8820655,96.2782775 L101.144561,96.352022 C102.083154,96.352022 102.571127,96.082022 102.713428,95.8304581 C102.856915,95.5747313 102.832605,95.0168899 102.341667,94.2134317" id="Fill-12" fill="#ABDCE3"></path>
            <path d="M84.5621796,69.6512819 C85.2013478,69.6512819 85.7183743,69.1297181 85.7183743,68.492185 C85.7183743,67.8475154 85.2013478,67.3283304 84.5621796,67.3283304 C83.9218257,67.3283304 83.4030204,67.8475154 83.4030204,68.492185 C83.4030204,69.1297181 83.9218257,69.6512819 84.5621796,69.6512819" id="Fill-14" fill="#ABDCE3"></path>
            <path d="M105.226343,93.6662952 L96.0929982,78.59863 L72.0773522,78.59863 L62.9493434,93.6627269 C61.1160336,96.68863 62.5022814,99.1614493 66.0307504,99.1614493 L78.2437239,99.1614493 L83.8432637,99.1614493 L84.3336088,99.1614493 L89.9284053,99.1614493 L102.139007,99.1614493 C105.668662,99.1614493 107.05491,96.68863 105.226343,93.6662952" id="Fill-16" fill="#ABDCE3"></path>
            <path d="M81.232754,84.1508767 C81.232754,84.8431233 80.6700726,85.404533 79.9834708,85.404533 C79.289754,85.404533 78.7270726,84.8431233 78.7270726,84.1508767 C78.7270726,83.4550617 79.289754,82.8906784 79.9834708,82.8906784 C80.6700726,82.8906784 81.232754,83.4550617 81.232754,84.1508767" id="Fill-18" fill="#FFFFFF"></path>
            <path d="M89.9615496,92.4757379 C89.9615496,93.1667952 89.4036115,93.729989 88.7134522,93.729989 C88.0203283,93.729989 87.4594257,93.1667952 87.4594257,92.4757379 C87.4594257,91.7823018 88.0203283,91.2214868 88.7134522,91.2214868 C89.4036115,91.2214868 89.9615496,91.7823018 89.9615496,92.4757379" id="Fill-20" fill="#FFFFFF"></path>
            <path d="M33.1124053,100.312696 C15.8969628,100.312696 1.88921947,86.2625859 1.88921947,68.9938855 C1.88921947,55.0763965 11.0818566,42.8205374 24.3318478,38.9328943 L24.3318478,28.9714405 L22.3912195,28.9714405 L22.3912195,22.1905154 L43.8335912,22.1905154 L43.8335912,28.9714405 L41.8953345,28.9714405 L41.8953345,38.9328943 C55.1476973,42.8205374 64.3403345,55.0763965 64.3403345,68.9938855 C64.3403345,86.2625859 50.3314053,100.312696 33.1124053,100.312696" id="Fill-22" fill="#FFFFFF"></path>
            <path d="M44.7994584,21.2216079 L42.8677239,21.2216079 L23.3576796,21.2216079 L21.4253522,21.2216079 L21.4253522,23.159185 L21.4253522,28.002533 L21.4253522,29.9401101 L23.3576796,29.9401101 L23.3665735,29.9401101 L23.3665735,32.4944053 L23.3665735,37.7332379 L23.3665735,38.2161454 C10.0786354,42.4445595 0.924538053,54.8889427 0.924538053,68.9937665 C0.924538053,86.798304 15.3639274,101.282555 33.1124053,101.282555 C50.8644407,101.282555 65.3062018,86.798304 65.3062018,68.9937665 C65.3062018,54.8889427 56.1497327,42.44337 42.8606088,38.2161454 L42.8606088,37.7332379 L42.8606088,37.6553304 L42.8606088,29.9401101 L42.8677239,29.9401101 L44.7994584,29.9401101 L44.7994584,28.002533 L44.7994584,23.159185 L44.7994584,21.2216079 Z M42.8677239,23.159185 L42.8677239,28.002533 L40.9294673,28.002533 L40.9294673,37.6553304 L40.9294673,37.7332379 L40.9294673,39.6684361 C53.8509805,43.1249119 63.3744673,54.9436564 63.3744673,68.9937665 C63.3744673,85.7551762 49.8268301,99.3437885 33.1124053,99.3437885 C16.4027239,99.3437885 2.85508673,85.7551762 2.85508673,68.9937665 C2.85508673,54.9436564 12.3791664,43.1249119 25.297715,39.6684361 L25.297715,37.7332379 L25.297715,32.4944053 L25.297715,28.002533 L23.3576796,28.002533 L23.3576796,23.159185 L42.8677239,23.159185 Z" id="Fill-24" fill="#FFFFFF"></path>
            <path d="M3.82540088,76.6402974 C7.20267522,89.700804 19.033808,99.3440859 33.1127018,99.3440859 C47.1904097,99.3440859 59.0203566,89.700804 62.4017814,76.6402974 L3.82540088,76.6402974 Z" id="Fill-26" fill="#ABDCE3"></path>
            <path d="M22.6483097,78.2560154 C22.6483097,79.1225132 21.9474779,79.8230859 21.0847788,79.8230859 C20.2226726,79.8230859 19.5224336,79.1225132 19.5224336,78.2560154 L19.5224336,71.2740771 C19.5224336,70.4075793 20.2226726,69.7046278 21.0847788,69.7046278 C21.9474779,69.7046278 22.6483097,70.4075793 22.6483097,71.2740771 L22.6483097,78.2560154 Z" id="Fill-28" fill="#ABDCE3"></path>
            <path d="M34.298246,83.526011 C34.298246,84.3913194 33.5974142,85.0966498 32.735308,85.0966498 C31.8696442,85.0966498 31.1694053,84.3913194 31.1694053,83.526011 L31.1694053,74.1229934 C31.1694053,73.2553062 31.8696442,72.557707 32.735308,72.557707 C33.5974142,72.557707 34.298246,73.2553062 34.298246,74.1229934 L34.298246,83.526011 Z" id="Fill-30" fill="#ABDCE3"></path>
            <path d="M43.1051885,82.5282004 C43.1051885,83.476174 42.3397283,84.2403811 41.4005425,84.2403811 C40.4566133,84.2403811 39.6947106,83.476174 39.6947106,82.5282004 L39.6947106,59.0197643 C39.6947106,58.0765485 40.4566133,57.3087731 41.4005425,57.3087731 C42.3397283,57.3087731 43.1051885,58.0765485 43.1051885,59.0197643 L43.1051885,82.5282004 Z" id="Fill-32" fill="#ABDCE3"></path>
            <path d="M22.2203991,61.5122687 C22.2203991,62.4168282 21.4893283,63.1536784 20.5892752,63.1536784 C19.6838858,63.1536784 18.952815,62.4168282 18.952815,61.5122687 C18.952815,60.608304 19.6838858,59.8756167 20.5892752,59.8756167 C21.4893283,59.8756167 22.2203991,60.608304 22.2203991,61.5122687" id="Fill-34" fill="#ABDCE3"></path>
            <path d="M33.4436106,83.1705507 C33.4436106,84.0762996 32.7143186,84.8107709 31.810708,84.8107709 C30.9100619,84.8107709 30.1766195,84.0762996 30.1766195,83.1705507 C30.1766195,82.2665859 30.9100619,81.5327093 31.810708,81.5327093 C32.7143186,81.5327093 33.4436106,82.2665859 33.4436106,83.1705507" id="Fill-36" fill="#FFFFFF"></path>
            <path d="M34.791615,47.4041145 C34.791615,48.6643128 33.7783142,49.687815 32.5219159,49.687815 C31.263146,49.687815 30.2498451,48.6643128 30.2498451,47.4041145 C30.2498451,46.1498634 31.263146,45.1275507 32.5219159,45.1275507 C33.7783142,45.1275507 34.791615,46.1498634 34.791615,47.4041145" id="Fill-38" fill="#ABDCE3"></path>
            <path d="M46.587469,90.2234978 C46.587469,91.1316256 45.8534336,91.8649075 44.9510088,91.8649075 C44.0509558,91.8649075 43.3169204,91.1316256 43.3169204,90.2234978 C43.3169204,89.319533 44.0509558,88.5868458 44.9510088,88.5868458 C45.8534336,88.5868458 46.587469,89.319533 46.587469,90.2234978" id="Fill-40" fill="#FFFFFF"></path>
            <path d="M24.6343558,90.6521079 C24.6343558,91.9914031 23.5540549,93.0737819 22.220577,93.0737819 C20.8859133,93.0737819 19.8062053,91.9914031 19.8062053,90.6521079 C19.8062053,89.3140022 20.8859133,88.2328128 22.220577,88.2328128 C23.5540549,88.2328128 24.6343558,89.3140022 24.6343558,90.6521079" id="Fill-42" fill="#FFFFFF"></path>
            <polygon id="Fill-44" fill="#657077" points="28.2822389 23.159185 37.9426903 23.159185 37.9426903 15.084163 28.2822389 15.084163"></polygon>
            <polygon id="Fill-46" fill="#45525B" points="28.2822389 31.1854405 37.9426903 31.1854405 37.9426903 23.159185 28.2822389 23.159185"></polygon>
            <polygon id="Fill-47" fill="#45525B" points="35.0069637 39.212826 31.1689903 39.212826 31.1689903 31.1853811 35.0069637 31.1877599"></polygon>
            <polygon id="Fill-48" fill="#45525B" points="85.6449115 61.3566322 81.8069381 61.3566322 81.8069381 53.3279978 85.6449115 53.3291872"></polygon>
            <polygon id="Fill-49" fill="#657077" points="87.1805159 45.2808084 80.2967106 45.2796189 80.2967106 37.2545529 87.1805159 37.2545529"></polygon>
            <polygon id="Fill-50" fill="#45525B" points="87.1805159 53.3082533 80.2967106 53.3058744 80.2967106 45.2819978 87.1805159 45.2819978"></polygon>
            <path d="M88.5006531,40.9366035 L88.0049717,40.9366035 C88.0049717,34.1473524 92.0350513,28.0515374 98.2696088,25.4068458 L98.462308,25.8641806 C92.4103699,28.43037 88.5006531,34.3483656 88.5006531,40.9366035" id="Fill-51" fill="#FFFFFF"></path>
            <path d="M89.7427027,40.9482004 L89.2464283,40.9422533 C89.2962336,37.5262181 90.9973221,34.6466145 93.8000566,33.2424956 L94.0218088,33.686152 C91.348331,35.0266366 89.7895434,37.673707 89.7427027,40.9482004" id="Fill-52" fill="#FFFFFF"></path>
            <path d="M101.637574,25.1151388 C101.637574,25.8014383 101.082008,26.3604692 100.395999,26.3604692 C99.7093973,26.3604692 99.153831,25.8014383 99.153831,25.1151388 C99.153831,24.4264604 99.7093973,23.8698084 100.395999,23.8698084 C101.082008,23.8698084 101.637574,24.4264604 101.637574,25.1151388" id="Fill-53" fill="#FFFFFF"></path>
            <path d="M99.613285,15.0107753 C99.613285,15.6994537 99.0577186,16.2572952 98.3717097,16.2572952 C97.6862938,16.2572952 97.1307274,15.6994537 97.1307274,15.0107753 C97.1307274,14.3244758 97.6862938,13.7666344 98.3717097,13.7666344 C99.0577186,13.7666344 99.613285,14.3244758 99.613285,15.0107753" id="Fill-54" fill="#FFFFFF"></path>
            <path d="M97.268285,32.5885485 C97.268285,33.2760374 96.7127186,33.8350683 96.0267097,33.8350683 C95.3412938,33.8350683 94.7839487,33.2760374 94.7839487,32.5885485 C94.7839487,31.89987 95.3412938,31.3432181 96.0267097,31.3432181 C96.7127186,31.3432181 97.268285,31.89987 97.268285,32.5885485" id="Fill-55" fill="#FFFFFF"></path>
            <path d="M79.5327327,40.9366035 L79.0370513,40.9366035 C79.0370513,34.3483656 75.1261487,28.43037 69.0759894,25.8641806 L69.2686885,25.4068458 C75.5038389,28.0515374 79.5327327,34.1473524 79.5327327,40.9366035" id="Fill-56" fill="#FFFFFF"></path>
            <path d="M77.7030398,40.9482004 C77.656792,37.673707 76.0968186,35.0266366 73.4251195,33.686152 L73.6462788,33.2424956 C76.4484204,34.6466145 78.1506947,37.5262181 78.1987212,40.9422533 L77.7030398,40.9482004 Z" id="Fill-57" fill="#FFFFFF"></path>
            <path d="M65.9007823,25.1151388 C65.9007823,25.8014383 66.4563487,26.3604692 67.1429504,26.3604692 C67.8283664,26.3604692 68.3851186,25.8014383 68.3851186,25.1151388 C68.3851186,24.4264604 67.8283664,23.8698084 67.1429504,23.8698084 C66.4563487,23.8698084 65.9007823,24.4264604 65.9007823,25.1151388" id="Fill-58" fill="#FFFFFF"></path>
            <path d="M70.5926204,32.5885485 C70.5926204,33.2760374 71.1475938,33.8350683 71.8341956,33.8350683 C72.5196115,33.8350683 73.0751779,33.2760374 73.0751779,32.5885485 C73.0751779,31.89987 72.5196115,31.3432181 71.8341956,31.3432181 C71.1475938,31.3432181 70.5926204,31.89987 70.5926204,32.5885485" id="Fill-59" fill="#FFFFFF"></path>
            <path d="M87.9494743,35.125359 L87.4537929,35.125359 L87.4573504,34.6644559 C87.5605186,27.7473414 89.9493947,22.9813062 91.9623593,20.1831784 C94.1964832,17.0757996 96.4021469,15.6877379 96.4946425,15.6312401 L96.7555274,16.0528921 C96.6671823,16.107011 87.9494743,21.6883987 87.9494743,35.125359" id="Fill-60" fill="#FFFFFF"></path>
        </g>
    </g>
</svg>
