
<svg width="115px" height="120px" viewBox="249 57 115 120" version="1.1" xmlns="http://www.w3.org/2000/svg" xmlns:xlink="http://www.w3.org/1999/xlink">
    <!-- Generator: Sketch 39.1 (31720) - http://www.bohemiancoding.com/sketch -->
    <desc>Created with Sketch.</desc>
    <defs></defs>
    <g id="Page-1" stroke="none" stroke-width="1" fill="none" fill-rule="evenodd" transform="translate(249.000000, 57.000000)">
        <polygon id="Fill-3" fill="#FFE28D" points="57.1108132 24.7530353 57.345716 24.7542944 57.352662 23.2339401 57.1183907 23.232681"></polygon>
        <polygon id="Fill-4" fill="#FF6D3B" points="57.3022085 34.5048961 18.8930769 57.0766485 18.6966931 96.2898272 56.8835511 119.262601"></polygon>
        <polygon id="Fill-5" fill="#45525B" points="57.3022085 34.5048961 18.8930769 57.0766485 18.6966931 96.2898272 56.8835511 119.262601"></polygon>
        <polygon id="Fill-6" fill="#192E2D" points="57.2547227 42.8586605 18.8462227 65.4606311 18.8184385 71.2511978 58.6969753 95.0618972"></polygon>
        <polygon id="Fill-7" fill="#192E2D" points="57.3022085 34.5048961 57.3022085 34.5048961 56.8835511 119.262601 95.2958399 96.6593709 95.5023271 57.4424148"></polygon>
        <polygon id="Fill-8" fill="#45525B" points="95.5024533 57.4427296 57.3023348 34.5052108 18.8932032 57.0763337 57.090796 79.979857"></polygon>
        <polygon id="Fill-9" fill="#657077" points="57.3022085 34.5048961 38.5661853 23.2366472 0.169682981 45.7920314 18.8930769 57.0766485"></polygon>
        <polygon id="Fill-10" fill="#657077" points="57.3022085 34.5048961 76.1702065 23.4217338 114.346961 46.3472912 95.5023271 57.4424148"></polygon>
        <polygon id="Fill-11" fill="#192E2D" points="57.3022085 34.5048961 57.3022085 34.5048961 18.8930769 57.0766485 57.0906697 80.0299059 57.0913011 79.9795422"></polygon>
        <polygon id="Fill-12" fill="#657077" points="114.194274 68.724136 95.5024533 57.4426667 57.0889016 79.9892372 75.8009293 91.283927 114.209429 68.724136"></polygon>
        <polygon id="Fill-13" fill="#657077" points="0.103379775 68.173283 18.8930769 57.0762707 57.0887753 79.9892372 38.2731883 91.1026177 0.0888562158 68.1726535"></polygon>
        <polygon id="Fill-14" fill="#F76A3F" points="26.2303791 38.3348038 26.1186109 61.4083046 57.0910485 79.9799199 87.896781 61.9050166 88.0098122 38.6344679 57.2097629 20.0603344"></polygon>
        <polygon id="Fill-15" fill="#FCA64C" points="26.2303791 38.3348038 26.1186109 61.4083046 56.9192917 79.8766743 57.2097629 20.0603344"></polygon>
        <polygon id="Fill-16" fill="#FFCC62" points="26.2303791 38.3348038 57.0304285 56.9095669 88.0098122 38.6344679 57.2097629 20.0603344"></polygon>
        <g id="Group-25" transform="translate(14.654976, 0.173723)" fill="#FFFFFF">
            <path d="M85.9148735,17.9107176 C85.3175132,17.7105219 84.6008071,17.3157964 84.3217022,17.0343892 C84.0419658,16.7517229 83.652987,16.0340402 83.4572347,15.4359712 C83.2621138,14.8397909 82.9375439,14.8385318 82.7354769,15.4328235 C82.5340415,16.0290038 82.1374852,16.7429093 81.8558544,17.0224278 C81.5742236,17.3000577 80.8524659,17.6878582 80.2538427,17.8836471 C79.654588,18.0788065 79.6526936,18.4017637 80.2500539,18.6038481 C80.8474142,18.8040438 81.5647518,19.1981398 81.8444881,19.479547 C82.1229616,19.7609541 82.5125719,20.479896 82.7070613,21.0773354 C82.9034451,21.6747748 83.2286465,21.6760339 83.430082,21.0804832 C83.6315174,20.4849324 84.0268108,19.7710269 84.3097045,19.4921379 C84.5919667,19.2132489 85.3118301,18.8254484 85.9110848,18.6309186 C86.5109709,18.4351297 86.5116024,18.1115429 85.9148735,17.9107176" id="Fill-17"></path>
            <path d="M7.82882999,17.8363053 C7.10328348,17.5920413 6.23313283,17.1135861 5.89277637,16.7711129 C5.55431429,16.4298989 5.08135142,15.5567182 4.8439228,14.8308513 C4.60586272,14.105614 4.21120077,14.1037253 3.96619464,14.8264445 C3.72245143,15.5497932 3.24064813,16.4179375 2.89839729,16.7578925 C2.55614646,17.0953293 1.67968122,17.5662299 0.952240331,17.8035688 C0.224799442,18.0396487 0.223536523,18.4331151 0.948451576,18.6773791 C1.67336663,18.921643 2.54414874,19.4000982 2.88387373,19.7425714 C3.22296727,20.084415 3.69593014,20.9569662 3.93335877,21.6822035 C4.17141885,22.4080703 4.56544933,22.4105885 4.81045547,21.6872399 C5.05483014,20.9638912 5.53663344,20.0963764 5.87825281,19.757051 C6.22113511,19.4183551 7.09696889,18.948084 7.82440978,18.7113746 C8.55248212,18.4740356 8.55374504,18.0805692 7.82882999,17.8363053" id="Fill-19"></path>
            <path d="M94.8151002,56.1015133 C93.3861082,55.6211694 91.6710653,54.67685 91.0017186,54.003865 C90.3336349,53.3308801 89.4028642,51.6109596 88.9355845,50.1818896 C88.4664103,48.7534491 87.6890842,48.7490422 87.2072809,50.1737055 C86.7254776,51.5983687 85.7782889,53.3082164 85.1038906,53.9755355 C84.4288608,54.6428545 82.7024516,55.5695466 81.2690395,56.0354109 C79.8362587,56.5025342 79.83247,57.2781353 81.2614619,57.7584791 C82.6898224,58.2388229 84.4061283,59.1831423 85.0748435,59.8561273 C85.7429272,60.5297418 86.6736979,62.2496622 87.1416091,63.6781028 C87.6095203,65.1078024 88.3868465,65.1109501 88.8699127,63.6862869 C89.351716,62.2622532 90.2982732,60.5517759 90.973303,59.8850864 C91.6483328,59.2177673 93.373479,58.2910752 94.8068912,57.8239519 C96.2403034,57.3580876 96.2440921,56.5818571 94.8151002,56.1015133" id="Fill-21"></path>
            <path d="M46.6271929,4.39882873 C45.76904,4.11049654 44.7378673,3.54327534 44.3356278,3.13847708 C43.9346513,2.73304927 43.3745471,1.70059337 43.0935478,0.841892242 C42.8125485,-0.0180679783 42.3446373,-0.0193270708 42.0547975,0.836855872 C41.7655893,1.69240927 41.1966446,2.72045835 40.7906164,3.12147933 C40.3852197,3.52124122 39.3483638,4.07901922 38.4870536,4.35979686 C37.6251119,4.63994496 37.6225861,5.1070683 38.4820019,5.39477095 C39.3407863,5.68310315 40.371959,6.25095389 40.7741985,6.65512261 C41.175175,7.05992087 41.7340163,8.09363586 42.0156471,8.95233699 C42.2972778,9.81166766 42.7639261,9.81418585 43.0543973,8.95737336 C43.3436056,8.10181996 43.9131817,7.07314134 44.317947,6.6727499 C44.7239752,6.27235847 45.760831,5.71521001 46.6227727,5.43443237 C47.4834515,5.15365473 47.4859773,4.68716093 46.6271929,4.39882873" id="Fill-23"></path>
        </g>
    </g>
</svg>
