<svg width="20px" height="20px" viewBox="20 0 20 20" version="1.1" xmlns="http://www.w3.org/2000/svg" xmlns:xlink="http://www.w3.org/1999/xlink">
    <!-- Generator: Sketch 41.2 (35397) - http://www.bohemiancoding.com/sketch -->
    <desc>Created with Sketch.</desc>
    <defs>
        <polygon id="path-1" points="0 8.00000003e-05 0 19.87488 19.87512 19.87488 19.87512 8.00000003e-05 1.62630326e-20 8.00000003e-05"></polygon>
    </defs>
    <g id="Page-1" stroke="none" stroke-width="1" fill="none" fill-rule="evenodd" transform="translate(20.000000, 0.000000)">
        <mask id="mask-2" fill="white">
            <use xlink:href="#path-1"></use>
        </mask>
        <g id="Clip-2"></g>
        <path d="M9.93752,9.15448 C9.52352,9.15448 9.18752,9.49048 9.18752,9.90448 L9.18752,19.12488 C9.18752,19.54048 9.52352,19.87488 9.93752,19.87488 C10.35312,19.87488 10.68752,19.54048 10.68752,19.12488 L10.68752,9.90448 C10.68752,9.49048 10.35312,9.15448 9.93752,9.15448 L9.93752,9.15448 Z M0.74992,1.50008 L19.12512,1.50008 C19.54072,1.50008 19.87512,1.16528 19.87512,0.75008 C19.87512,0.33608 19.54072,8.00000003e-05 19.12512,8.00000003e-05 L0.74992,8.00000003e-05 C0.33592,8.00000003e-05 -7.99999998e-05,0.33608 -7.99999998e-05,0.75008 C-7.99999998e-05,1.16528 0.33592,1.50008 0.74992,1.50008 L0.74992,1.50008 Z M10.46832,4.17608 C10.32152,4.02888 10.12952,3.95688 9.93752,3.95688 C9.74712,3.95688 9.55512,4.02888 9.40792,4.17608 L0.56832,13.01528 C0.27592,13.30808 0.27592,13.78208 0.56832,14.07608 C0.86272,14.36848 1.33632,14.36848 1.62912,14.07608 L9.93752,5.76768 L18.24752,14.07608 C18.53992,14.36848 19.01392,14.36848 19.30792,14.07608 C19.60072,13.78208 19.60072,13.30808 19.30792,13.01528 L10.46832,4.17608 Z" id="Fill-1" fill="#00AFEF" mask="url(#mask-2)"></path>
    </g>
</svg>
