<svg width="258px" height="259px" viewBox="70 390 258 259" version="1.1" xmlns="http://www.w3.org/2000/svg" xmlns:xlink="http://www.w3.org/1999/xlink">
    <!-- Generator: Sketch 39.1 (31720) - http://www.bohemiancoding.com/sketch -->
    <desc>Created with Sketch.</desc>
    <defs>
        <polygon id="path-1" points="0 257.859031 257.620991 257.859031 257.620991 0.378801762 0 0.378801762"></polygon>
    </defs>
    <g id="Page-1" stroke="none" stroke-width="1" fill="none" fill-rule="evenodd" transform="translate(70.000000, 390.000000)">
        <g id="Group-48" transform="translate(0.000000, 0.762167)">
            <path d="M179.66378,124.990776 C179.66378,96.8738727 156.859319,74.0830137 128.727045,74.0830137 C100.591346,74.0830137 77.7868858,96.8738727 77.7868858,124.990776 C77.7868858,140.729304 84.9343991,154.799736 96.1596823,164.135146 L96.1528327,164.159106 C96.1528327,164.159106 103.127965,170.037379 103.127965,179.509705 L103.142806,179.509705 L103.142806,197.498225 L154.306718,197.500507 L154.306718,176.486137 C155.199443,170.901093 158.345673,166.936225 160.000983,165.176851 C171.966019,155.856274 179.66378,141.321467 179.66378,124.990776 L179.66378,124.990776 Z" id="Fill-3" fill="#FFD55C"></path>
            <polygon id="Fill-5" fill="#FFD55C" points="170.225546 81.1448141 172.279272 83.1951357 192.092758 63.3958978 190.040174 61.3410123"></polygon>
            <polygon id="Fill-7" fill="#FFD55C" points="192.780911 58.6028004 194.833495 60.653122 202.820079 52.6754656 200.765212 50.6228621"></polygon>
            <mask id="mask-2" fill="white">
                <use xlink:href="#path-1"></use>
            </mask>
            <g id="Clip-10"></g>
            <polygon id="Fill-9" fill="#FFD55C" mask="url(#mask-2)" points="44.8189381 126.098771 68.6725221 126.098771 68.6725221 123.200709 44.8189381 123.200709"></polygon>
            <polygon id="Fill-11" fill="#FFD55C" mask="url(#mask-2)" points="26.8502655 126.098771 39.6988938 126.098771 39.6988938 123.200709 26.8502655 123.200709"></polygon>
            <polygon id="Fill-12" fill="#FFD55C" mask="url(#mask-2)" points="58.6839265 144.916433 57.9316168 142.119918 70.3441566 138.796274 71.0953248 141.597354"></polygon>
            <polygon id="Fill-13" fill="#FFD55C" mask="url(#mask-2)" points="66.3216398 162.358543 64.8706752 159.849552 75.9966398 153.428177 77.4498876 155.940591"></polygon>
            <polygon id="Fill-14" fill="#FFD55C" mask="url(#mask-2)" points="160.083863 73.3495987 157.570075 71.9005678 163.996102 60.7784004 166.507606 62.2274313"></polygon>
            <polygon id="Fill-15" fill="#FFD55C" mask="url(#mask-2)" points="145.730387 66.9985079 142.930059 66.2500322 146.253236 53.8419925 149.05813 54.5961731"></polygon>
            <polygon id="Fill-16" fill="#FFD55C" mask="url(#mask-2)" points="130.226299 64.5750894 127.325512 64.5762304 127.320945 40.7368207 130.226299 40.7391026"></polygon>
            <polygon id="Fill-17" fill="#FFD55C" mask="url(#mask-2)" points="130.226299 37.075907 127.325512 37.075907 127.320945 26.4318057 130.226299 26.4363696"></polygon>
            <polygon id="Fill-18" fill="#FFD55C" mask="url(#mask-2)" points="114.619696 66.2453542 111.819369 66.9983938 108.491626 54.5926361 111.294236 53.8441604"></polygon>
            <polygon id="Fill-19" fill="#FFD55C" mask="url(#mask-2)" points="99.9775115 71.8966885 97.4682903 73.3491423 91.0422637 62.224693 93.5549097 60.7779441"></polygon>
            <polygon id="Fill-20" fill="#FFD55C" mask="url(#mask-2)" points="87.3028619 81.1448141 85.2491363 83.1951357 65.434508 63.3958978 67.4905168 61.3410123"></polygon>
            <polygon id="Fill-21" fill="#FFD55C" mask="url(#mask-2)" points="64.7474973 58.6028004 62.6937717 60.653122 54.7071876 52.6754656 56.7631965 50.6228621"></polygon>
            <polygon id="Fill-22" fill="#FFD55C" mask="url(#mask-2)" points="77.4500018 93.3544392 75.996754 95.8645714 64.8685062 89.4454789 66.3240372 86.9330648"></polygon>
            <polygon id="Fill-23" fill="#FFD55C" mask="url(#mask-2)" points="71.0954389 107.696764 70.3442708 110.498984 57.9294478 107.175341 58.6840407 104.37198"></polygon>
            <polygon id="Fill-24" fill="#FFD55C" mask="url(#mask-2)" points="170.225546 168.528105 172.279272 166.480066 192.092758 186.277022 190.040174 188.328484"></polygon>
            <polygon id="Fill-25" fill="#FFD55C" mask="url(#mask-2)" points="192.780911 191.070005 194.833495 189.019683 202.820079 196.99734 200.765212 199.049943"></polygon>
            <polygon id="Fill-26" fill="#FFD55C" mask="url(#mask-2)" points="87.3028619 168.528105 85.2491363 166.480066 65.434508 186.277022 67.4905168 188.328484"></polygon>
            <polygon id="Fill-27" fill="#FFD55C" mask="url(#mask-2)" points="64.7474973 191.070005 62.6937717 189.019683 54.7071876 196.99734 56.7631965 199.049943"></polygon>
            <polygon id="Fill-28" fill="#FFD55C" mask="url(#mask-2)" points="188.947327 126.098771 212.800912 126.098771 212.800912 123.200709 188.947327 123.200709"></polygon>
            <polygon id="Fill-29" fill="#FFD55C" mask="url(#mask-2)" points="217.922097 126.098771 230.770726 126.098771 230.770726 123.200709 217.922097 123.200709"></polygon>
            <polygon id="Fill-30" fill="#FFD55C" mask="url(#mask-2)" points="198.935923 144.916433 199.689374 142.119918 187.276835 138.796274 186.525666 141.597354"></polygon>
            <polygon id="Fill-31" fill="#FFD55C" mask="url(#mask-2)" points="191.299351 162.358543 192.750316 159.849552 181.624351 153.428177 180.171104 155.940591"></polygon>
            <polygon id="Fill-32" fill="#FFD55C" mask="url(#mask-2)" points="180.170989 93.3544392 181.624237 95.8645714 192.752485 89.4454789 191.296954 86.9330648"></polygon>
            <polygon id="Fill-33" fill="#FFD55C" mask="url(#mask-2)" points="186.525552 107.696764 187.27672 110.498984 199.691543 107.175341 198.935809 104.37198"></polygon>
            <polygon id="Fill-34" fill="#E7EDF2" mask="url(#mask-2)" points="133.452669 209.500422 97.9605451 209.500422 97.9365717 187.903017 159.500395 187.905299 159.516377 209.500422"></polygon>
            <polygon id="Fill-35" fill="#CFDBE5" mask="url(#mask-2)" points="97.9362292 187.903359 116.097831 187.926178 116.097831 209.500764 97.9362292 209.433447"></polygon>
            <polygon id="Fill-36" fill="#CFDBE5" mask="url(#mask-2)" points="97.9362292 193.622695 159.54115 193.622695 159.54115 197.214466 97.9362292 197.216748"></polygon>
            <polygon id="Fill-37" fill="#CFDBE5" mask="url(#mask-2)" points="97.9362292 201.744342 159.54115 201.740919 159.54115 205.33269 97.9362292 205.334972"></polygon>
            <polygon id="Fill-38" fill="#CFDBE5" mask="url(#mask-2)" points="97.9362292 209.401272 110.846504 222.333016 146.929973 222.333016 159.54115 209.400131"></polygon>
            <polygon id="Fill-39" fill="#192E2D" mask="url(#mask-2)" points="146.929973 222.333016 110.846504 222.333016 120.304601 231.806483 137.693344 231.806483"></polygon>
            <g id="Group-44" mask="url(#mask-2)" fill="#F3F7F9">
                <g transform="translate(83.336283, 77.585903)">
                    <path d="M69.8378602,10.7233987 C69.546754,10.7233987 69.2533646,10.6423899 68.9919398,10.4723855 C63.4620637,6.87034581 57.3488336,4.61236784 50.8212053,3.76348678 C49.9718602,3.65395374 49.3713823,2.87581278 49.4832584,2.02693172 C49.5939929,1.17919163 50.3691345,0.573337004 51.2207628,0.690856828 C58.2141611,1.59906828 64.7634796,4.01678194 70.6860637,7.87325771 C71.4029841,8.34219604 71.6061876,9.30289207 71.1381345,10.0194207 C70.8413204,10.4746674 70.3435858,10.7233987 69.8378602,10.7233987" id="Fill-40"></path>
                    <path d="M2.17838761,34.0274656 C2.01057345,34.0274656 1.8416177,34.0012233 1.67722832,33.9453159 C0.866697345,33.6669194 0.435175221,32.7849502 0.711440708,31.9748621 C7.20824602,13.0267872 25.0479186,0.295853304 45.1022814,0.295853304 C45.9584761,0.295853304 46.6537062,0.989562555 46.6537062,1.84528943 C46.6537062,2.7010163 45.9584761,3.39472555 45.1022814,3.39472555 C26.3721664,3.39472555 9.71290088,15.2836242 3.64533451,32.9800559 C3.42500708,33.6235626 2.82224602,34.0274656 2.17838761,34.0274656" id="Fill-41"></path>
                    <path d="M80.0876522,77.5959436 C79.740608,77.5959436 79.3889973,77.4795648 79.1001743,77.2388203 C78.4403336,76.693437 78.3478646,75.7167674 78.8924044,75.0561463 C85.3538204,67.2427894 88.9144487,57.3426 88.9144487,47.1834106 C88.9144487,38.8771551 86.5787496,30.7956705 82.1596434,23.8129392 C81.700723,23.0918467 81.9176257,22.1345736 82.640254,21.675904 C83.3651655,21.2206573 84.3218204,21.4340185 84.7807407,22.156252 C89.513785,29.6341639 92.0161566,38.288415 92.0161566,47.1834106 C92.0161566,58.0614106 88.2032363,68.6610141 81.2829,77.0311639 C80.9758115,77.4019789 80.534015,77.5959436 80.0876522,77.5959436" id="Fill-42"></path>
                    <path d="M81.0553805,21.0823718 C80.5907522,21.0823718 80.1318319,20.8747154 79.825885,20.4799401 C77.7127965,17.7381912 75.274354,15.2485965 72.5756283,13.0739093 C71.9089381,12.5353718 71.8039115,11.5609841 72.3416018,10.8946581 C72.8815752,10.2306141 73.855354,10.1210811 74.5220442,10.6607595 C77.4102743,12.9849137 80.0210973,15.6536405 82.2825929,18.5859313 C82.8054425,19.263667 82.6810088,20.2380546 82.0017611,20.7606185 C81.7197876,20.9774026 81.3864425,21.0823718 81.0553805,21.0823718" id="Fill-43"></path>
                </g>
            </g>
            <path d="M108.986506,145.098075 L88.417285,124.53667 L108.986506,103.978688 C119.933241,93.0413573 137.683869,93.0356524 148.632887,103.978688 L169.200966,124.53667 L148.632887,145.098075 C137.683869,156.037688 119.933241,156.037688 108.986506,145.098075" id="Fill-45" fill="#FFFFFF" mask="url(#mask-2)"></path>
            <path d="M108.480324,123.995737 C108.480324,135.368917 117.707819,144.592512 129.086076,144.592512 C140.467758,144.592512 149.690687,135.368917 149.690687,123.995737 C149.690687,112.620274 140.467758,103.398961 129.086076,103.398961 C117.707819,103.398961 108.480324,112.620274 108.480324,123.995737" id="Fill-46" fill="#ABDCE3" mask="url(#mask-2)"></path>
            <path d="M120.444788,123.995737 C120.444788,128.76727 124.313647,132.634014 129.085505,132.634014 C133.858505,132.634014 137.730788,128.76727 137.730788,123.995737 C137.730788,119.224204 133.858505,115.356318 129.085505,115.356318 C124.313647,115.356318 120.444788,119.226485 120.444788,123.995737" id="Fill-47" fill="#192E2D" mask="url(#mask-2)"></path>
        </g>
    </g>
</svg>
