
<svg width="93px" height="93px" viewBox="269 55 93 93" version="1.1" xmlns="http://www.w3.org/2000/svg" xmlns:xlink="http://www.w3.org/1999/xlink">
    <!-- Generator: Sketch 39.1 (31720) - http://www.bohemiancoding.com/sketch -->
    <desc>Created with Sketch.</desc>
    <defs></defs>
    <g id="Page-1" stroke="none" stroke-width="1" fill="none" fill-rule="evenodd" transform="translate(269.000000, 55.000000)">
        <polygon id="Fill-4" fill="#657077" points="1.81287747 92.7823067 92.8603417 92.7823067 92.8603417 24.1102054 1.81287747 24.1102054"></polygon>
        <polygon id="Fill-5" fill="#192E2D" points="1.81287747 38.1720512 92.8603417 38.1720512 92.8603417 24.1108199 1.81287747 24.1108199"></polygon>
        <polygon id="Fill-6" fill="#FFFFFF" points="11.0062999 24.1107584 1.81312226 24.1107584 12.6286614 38.1719897 21.825511 38.1719897"></polygon>
        <polygon id="Fill-7" fill="#FFFFFF" points="28.765742 24.1107584 19.5707284 24.1107584 30.3881035 38.1719897 39.5831171 38.1719897"></polygon>
        <polygon id="Fill-8" fill="#FFFFFF" points="46.5245109 24.1107584 37.3307212 24.1107584 48.1487083 38.1719897 57.342498 38.1719897"></polygon>
        <polygon id="Fill-9" fill="#FFFFFF" points="64.2838918 24.1107584 55.0901021 24.1107584 65.9068652 38.1719897 75.1024908 38.1719897"></polygon>
        <polygon id="Fill-10" fill="#FFFFFF" points="82.0438846 24.1107584 72.848871 24.1107584 83.6637982 38.1719897 92.8606477 38.1719897"></polygon>
        <polygon id="Fill-11" fill="#192E2D" points="91.8947582 14.5827241 2.04126875 24.0392263 0.581694214 10.0566558 90.4345717 0.602611742"></polygon>
        <polygon id="Fill-12" fill="#FFFFFF" points="28.6426114 21.2406228 19.5681581 22.1962285 28.783979 7.08843994 37.8590444 6.13406328"></polygon>
        <polygon id="Fill-13" fill="#FFFFFF" points="46.167726 19.3963959 37.0932726 20.3489289 46.3084816 5.24544214 55.3847709 4.28983641"></polygon>
        <polygon id="Fill-14" fill="#FFFFFF" points="63.6934526 17.5515545 54.6177752 18.5047021 63.8342082 3.4018298 72.9104975 2.44560954"></polygon>
        <polygon id="Fill-15" fill="#FFFFFF" points="81.2191791 15.70616 72.1447257 16.6605366 81.3599347 1.55520624 90.4350001 0.602058658"></polygon>
        <polygon id="Fill-16" fill="#E7EDF2" points="6.56643941 15.362019 1.81134752 15.362019 1.81134752 38.1785653 24.5335878 38.1785653 24.5335878 33.4017657"></polygon>
        <g id="Group-39" transform="translate(3.278846, 17.104048)">
            <path d="M3.83323547,2.56507982 C3.83323547,3.55755779 3.03215242,4.36137277 2.04441518,4.36137277 C1.05912587,4.36137277 0.258042818,3.55755779 0.258042818,2.56507982 C0.258042818,1.57506 1.05912587,0.771245019 2.04441518,0.771245019 C3.03215242,0.771245019 3.83323547,1.57506 3.83323547,2.56507982 L3.83323547,2.56507982 Z" id="Fill-17" fill="#45525B"></path>
            <path d="M3.83323547,17.7268862 C3.83323547,18.716906 3.03215242,19.5201065 2.04441518,19.5201065 C1.05912587,19.5201065 0.258042818,18.716906 0.258042818,17.7268862 C0.258042818,16.7350228 1.05912587,15.9324369 2.04441518,15.9324369 C3.03215242,15.9324369 3.83323547,16.7350228 3.83323547,17.7268862" id="Fill-19" fill="#45525B"></path>
            <path d="M19.1148279,17.7268862 C19.1148279,18.716906 18.3137449,19.5201065 17.3266196,19.5201065 C16.3413303,19.5201065 15.5396353,18.716906 15.5396353,17.7268862 C15.5396353,16.7350228 16.3413303,15.9324369 17.3266196,15.9324369 C18.3137449,15.9324369 19.1148279,16.7350228 19.1148279,17.7268862" id="Fill-21" fill="#45525B"></path>
            <polygon id="Fill-23" fill="#FFFFFF" points="37.9452366 34.6983825 52.4479609 43.1077129 37.9452366 51.5151996"></polygon>
            <polygon id="Fill-25" fill="#FFFFFF" points="4.14644731 67.4291384 7.85688775 69.5818631 4.14644731 71.7315151"></polygon>
            <polygon id="Fill-27" fill="#45525B" points="3.77258816 65.2765981 84.4537073 65.2765981 84.4537073 62.5087215 3.77258816 62.5087215"></polygon>
            <polygon id="Fill-29" fill="#FFFFFF" points="3.84357794 65.2765981 12.4700613 65.2765981 12.4700613 62.5087215 3.84357794 62.5087215"></polygon>
            <polygon id="Fill-30" fill="#FFFFFF" points="80.7922253 66.7830752 79.5046174 66.7830752 78.5939898 66.7830752 78.5939898 67.6944342 78.5939898 68.987421 79.5046174 68.987421 79.5046174 67.6944342 80.7922253 67.6944342"></polygon>
            <polygon id="Fill-31" fill="#FFFFFF" points="82.3813562 66.7830752 83.6695761 66.7830752 84.5795918 66.7830752 84.5795918 67.6944342 84.5795918 68.987421 83.6695761 68.987421 83.6695761 67.6944342 82.3813562 67.6944342"></polygon>
            <polygon id="Fill-32" fill="#FFFFFF" points="80.7922253 72.3354825 79.5046174 72.3354825 78.5939898 72.3354825 78.5939898 71.4228944 78.5939898 70.128064 79.5046174 70.128064 79.5046174 71.4228944 80.7922253 71.4228944"></polygon>
            <polygon id="Fill-33" fill="#FFFFFF" points="82.3813562 72.3354825 83.6695761 72.3354825 84.5795918 72.3354825 84.5795918 71.4228944 84.5795918 70.129293 83.6695761 70.129293 83.6695761 71.4228944 82.3813562 71.4228944"></polygon>
            <polygon id="Fill-34" fill="#FFFFFF" points="14.3696501 70.5739109 15.8243288 70.5739109 15.8243288 68.4986179 14.3696501 68.4986179"></polygon>
            <polygon id="Fill-35" fill="#FFFFFF" points="17.0864783 71.9180886 15.6330236 70.5366085 15.6330236 68.4600864 17.0864783 67.1548089"></polygon>
            <polygon id="Fill-36" fill="#FFFFFF" points="20.5304622 72.0328228 21.1675344 72.0328228 21.1675344 67.277532 20.5304622 67.277532"></polygon>
            <polygon id="Fill-37" fill="#FFFFFF" points="19.2942607 71.2880034 19.9301089 71.2880034 19.9301089 68.0205078 19.2942607 68.0205078"></polygon>
            <polygon id="Fill-38" fill="#FFFFFF" points="18.0556113 70.4706686 18.6920715 70.4706686 18.6920715 68.8378426 18.0556113 68.8378426"></polygon>
        </g>
    </g>
</svg>
