
<svg width="209px" height="209px" viewBox="12 0 209 209" version="1.1" xmlns="http://www.w3.org/2000/svg" xmlns:xlink="http://www.w3.org/1999/xlink">
    <!-- Generator: Sketch 40.3 (33839) - http://www.bohemiancoding.com/sketch -->
    <desc>Created with Sketch.</desc>
    <defs>
        <polygon id="path-1" points="0 0.540793165 0 81.6098429 121.106477 81.6098429 121.106477 0.540793165 0 0.540793165"></polygon>
        <polygon id="path-3" points="0.701437972 1.11320553 0.701437972 0.496846786 0.518607176 0.496846786 0.518607176 1.11320553 0.701437972 1.11320553"></polygon>
        <polygon id="path-5" points="0.701437972 1.1042067 0.701437972 0.487847949 0.51737225 0.487847949 0.51737225 1.1042067 0.701437972 1.1042067"></polygon>
        <polygon id="path-7" points="0 112.472528 121.106724 112.472528 121.106724 0 0 0"></polygon>
    </defs>
    <g id="Group-9" stroke="none" stroke-width="1" fill="none" fill-rule="evenodd" transform="translate(12.000000, 0.000000)">
        <circle id="Oval-3" fill="#F5F6F6" cx="104.5" cy="104.5" r="104.5"></circle>
        <g id="Page-1" transform="translate(44.232804, 50.867725)">
            <g id="Group-3" transform="translate(33.343002, 89.050895)" fill="#FFFFFF">
                <path d="M46.1668443,21.1208268 C42.808463,21.1208268 43.3759115,17.7222247 43.3759115,17.7222247 L43.3759115,13.2881399 L43.3759115,0.307008292 L28.580263,0.385902212 L11.0455487,0.307008292 L11.0455487,13.2881399 L11.0455487,17.7222247 C11.0455487,17.7222247 11.6129972,21.1208268 8.25461591,21.1208268 L0.600544517,21.1208268 L0.600544517,23.421694 L28.1326024,23.421694 L29.0303936,23.421694 L53.8202982,23.421694 L53.8202982,21.1208268 L46.1668443,21.1208268 Z" id="Fill-1"></path>
            </g>
            <path d="M78.6789265,110.080501 L78.6776916,110.080501 C76.2615589,109.558445 76.7184815,106.77312 76.7184815,106.77312 L76.7184815,102.339035 L76.7184815,89.3579038 L61.922833,89.4367977 L50.424437,89.3856399 C50.232406,89.4515903 50.0440797,89.5187734 49.872425,89.5797929 L44.3887361,92.8908721 L44.3887361,98.3302381 L56.2767513,110.080501 L78.6789265,110.080501 Z" id="Fill-4" fill="#576672"></path>
            <path d="M3.41839868,96.426121 C3.04545102,96.426121 2.74289415,96.1234888 2.74289415,95.7518245 L2.74289415,21.5034007 C2.74289415,21.1335855 3.04545102,20.8309533 3.41839868,20.8309533 L117.687954,20.8309533 C118.06152,20.8309533 118.364694,21.1335855 118.364694,21.5034007 L118.364694,95.7518245 C118.364694,96.1234888 118.06152,96.426121 117.687954,96.426121 L3.41839868,96.426121 Z" id="Fill-6" fill="#FFFFFF"></path>
            <g id="Group-10" transform="translate(0.000000, 17.553281)">
                <mask id="mask-2" fill="white">
                    <use xlink:href="#path-1"></use>
                </mask>
                <g id="Clip-9"></g>
                <path d="M117.688201,0.540793165 L3.41864566,0.540793165 C1.53106126,0.540793165 -0.000246985201,2.06813014 -0.000246985201,3.95048976 L-0.000246985201,78.1982972 C-0.000246985201,80.0837386 1.53106126,81.6098429 3.41864566,81.6098429 L117.688201,81.6098429 C119.575786,81.6098429 121.106477,80.0837386 121.106477,78.1982972 L121.106477,3.95110612 C121.106477,2.06813014 119.575786,0.540793165 117.688201,0.540793165 L117.688201,0.540793165 Z M5.48467687,76.1371935 L115.62217,76.1371935 L115.62217,6.0146752 L5.48467687,6.0146752 L5.48467687,76.1371935 Z" id="Fill-8" fill="#192E2D" mask="url(#mask-2)"></path>
            </g>
            <g id="Group-13" transform="translate(120.405286, 23.100509)">
                <mask id="mask-4" fill="white">
                    <use xlink:href="#path-3"></use>
                </mask>
                <g id="Clip-12"></g>
                <path id="Fill-11" fill="#5A6D7A" mask="url(#mask-4)"></path>
            </g>
            <g id="Group-16" transform="translate(120.405286, 95.830842)">
                <mask id="mask-6" fill="white">
                    <use xlink:href="#path-5"></use>
                </mask>
                <g id="Clip-15"></g>
                <path d="M0.51737225,0.487847949 L0.518607176,0.487847949 L0.51737225,0.487847949 Z" id="Fill-14" fill="#5A6D7A" mask="url(#mask-6)"></path>
            </g>
            <polygon id="Fill-17" fill="#576672" points="17.1484913 21.4346767 25.0378161 93.7187652 62.932138 93.7187652 62.932138 21.5856846"></polygon>
            <polygon id="Fill-19" fill="#576672" points="105.834023 21.4346767 98.3874194 93.7187652 60.4943323 93.7187652 60.4943323 21.5856846"></polygon>
            <polygon id="Fill-21" fill="#FFFFFF" points="25.0675778 5.58119009 25.0675778 42.4493049 25.0675778 42.7365281 25.0675778 93.6779622 98.3684633 93.6779622 98.3684633 42.7365281 98.3684633 42.4493049 98.3684633 5.58119009"></polygon>
            <mask id="mask-8" fill="white">
                <use xlink:href="#path-7"></use>
            </mask>
            <g id="Clip-24"></g>
            <polygon id="Fill-23" fill="#D2CFD6" mask="url(#mask-8)" points="25.067763 5.84924451 98.3686485 5.84924451 98.3686485 0 25.067763 0"></polygon>
            <path d="M27.7110604,2.96770573 C27.7110604,3.36032626 27.3899796,3.67960009 26.9960382,3.67960009 C26.6008619,3.67960009 26.2828685,3.36032626 26.2828685,2.96770573 C26.2828685,2.57323613 26.6008619,2.25457866 26.9960382,2.25457866 C27.3899796,2.25457866 27.7110604,2.57323613 27.7110604,2.96770573" id="Fill-25" fill="#E44B55" mask="url(#mask-8)"></path>
            <path d="M30.2146876,2.96770573 C30.2146876,3.36032626 29.8948418,3.67960009 29.5021353,3.67960009 C29.106959,3.67960009 28.7877306,3.36032626 28.7877306,2.96770573 C28.7877306,2.57323613 29.106959,2.25457866 29.5021353,2.25457866 C29.8948418,2.25457866 30.2146876,2.57323613 30.2146876,2.96770573" id="Fill-26" fill="#ECB818" mask="url(#mask-8)"></path>
            <path d="M32.6899733,2.96770573 C32.6899733,3.36032626 32.36951,3.67960009 31.9761861,3.67960009 C31.5822447,3.67960009 31.2611639,3.36032626 31.2611639,2.96770573 C31.2611639,2.57323613 31.5822447,2.25457866 31.9761861,2.25457866 C32.36951,2.25457866 32.6899733,2.57323613 32.6899733,2.96770573" id="Fill-27" fill="#66B548" mask="url(#mask-8)"></path>
            <polygon id="Fill-28" fill="#BCB9BF" mask="url(#mask-8)" points="34.4241799 4.26643525 37.2645097 4.26643525 37.2645097 1.51870795 34.4241799 1.51870795"></polygon>
            <polygon id="Fill-29" fill="#BCB9BF" mask="url(#mask-8)" points="38.0641243 4.26643525 40.9044541 4.26643525 40.9044541 1.51870795 38.0641243 1.51870795"></polygon>
            <polygon id="Fill-30" fill="#E5E3EB" mask="url(#mask-8)" points="42.208536 4.26643525 78.4956018 4.26643525 78.4956018 1.51870795 42.208536 1.51870795"></polygon>
            <polygon id="Fill-31" fill="#E5E3EB" mask="url(#mask-8)" points="79.4279709 4.26643525 96.2050581 4.26643525 96.2050581 1.51870795 79.4279709 1.51870795"></polygon>
            <polygon id="Fill-32" fill="#C3D3E2" mask="url(#mask-8)" points="25.067763 93.7506309 98.3686485 93.7506309 98.3686485 77.090454 25.067763 77.090454"></polygon>
            <polygon id="Fill-33" fill="#929EAA" mask="url(#mask-8)" points="33.5288585 90.2225935 45.4242833 90.2225935 45.4242833 88.7605905 33.5288585 88.7605905"></polygon>
            <path d="M79.5532541,89.7346222 C79.5532541,90.4921271 78.9370261,91.1078695 78.1769291,91.1078695 C77.4180671,91.1078695 76.801839,90.4921271 76.801839,89.7346222 C76.801839,88.9758846 77.4180671,88.3601422 78.1769291,88.3601422 C78.9370261,88.3601422 79.5532541,88.9758846 79.5532541,89.7346222" id="Fill-34" fill="#E5E3EB" mask="url(#mask-8)"></path>
            <path d="M83.1820842,89.7346222 C83.1820842,90.4921271 82.5658561,91.1078695 81.8057592,91.1078695 C81.0450447,91.1078695 80.4306691,90.4921271 80.4306691,89.7346222 C80.4306691,88.9758846 81.0450447,88.3601422 81.8057592,88.3601422 C82.5658561,88.3601422 83.1820842,88.9758846 83.1820842,89.7346222" id="Fill-35" fill="#E5E3EB" mask="url(#mask-8)"></path>
            <path d="M86.8108525,89.7346222 C86.8108525,90.4921271 86.1946244,91.1078695 85.4345275,91.1078695 C84.675048,91.1078695 84.0588199,90.4921271 84.0588199,89.7346222 C84.0588199,88.9758846 84.675048,88.3601422 85.4345275,88.3601422 C86.1946244,88.3601422 86.8108525,88.9758846 86.8108525,89.7346222" id="Fill-36" fill="#E5E3EB" mask="url(#mask-8)"></path>
            <path d="M90.4390651,89.7346222 C90.4390651,90.4921271 89.8228371,91.1078695 89.0627401,91.1078695 C88.3026431,91.1078695 87.68765,90.4921271 87.68765,89.7346222 C87.68765,88.9758846 88.3026431,88.3601422 89.0627401,88.3601422 C89.8228371,88.3601422 90.4390651,88.9758846 90.4390651,89.7346222" id="Fill-37" fill="#E5E3EB" mask="url(#mask-8)"></path>
            <polygon id="Fill-38" fill="#C3D3E2" mask="url(#mask-8)" points="29.8191408 28.7124559 48.3312991 28.7124559 48.3312991 10.2327879 29.8191408 10.2327879"></polygon>
            <polygon id="Fill-39" fill="#C3D3E2" mask="url(#mask-8)" points="52.1651269 28.7124559 70.6779027 28.7124559 70.6779027 10.2327879 52.1651269 10.2327879"></polygon>
            <polygon id="Fill-40" fill="#C3D3E2" mask="url(#mask-8)" points="74.511113 28.7124559 93.0238888 28.7124559 93.0238888 10.2327879 74.511113 10.2327879"></polygon>
            <polygon id="Fill-41" fill="#C3D3E2" mask="url(#mask-8)" points="29.8191408 50.9247924 48.3312991 50.9247924 48.3312991 32.4451245 29.8191408 32.4451245"></polygon>
            <polygon id="Fill-42" fill="#C3D3E2" mask="url(#mask-8)" points="52.1651269 50.9247924 70.6779027 50.9247924 70.6779027 32.4451245 52.1651269 32.4451245"></polygon>
            <polygon id="Fill-43" fill="#C3D3E2" mask="url(#mask-8)" points="74.511113 50.9247924 93.0238888 50.9247924 93.0238888 32.4451245 74.511113 32.4451245"></polygon>
            <polygon id="Fill-44" fill="#C3D3E2" mask="url(#mask-8)" points="29.8191408 72.9509886 48.3312991 72.9509886 48.3312991 54.471937 29.8191408 54.471937"></polygon>
            <polygon id="Fill-45" fill="#C3D3E2" mask="url(#mask-8)" points="52.1651269 72.9509886 70.6779027 72.9509886 70.6779027 54.471937 52.1651269 54.471937"></polygon>
            <polygon id="Fill-46" fill="#C3D3E2" mask="url(#mask-8)" points="74.511113 72.9509886 93.0238888 72.9509886 93.0238888 54.471937 74.511113 54.471937"></polygon>
            <polygon id="Fill-47" fill="#192E2D" mask="url(#mask-8)" points="82.5332541 63.5526272 61.4703561 42.5261649 62.5614132 41.4364426 83.6249287 62.4629049"></polygon>
            <polygon id="Fill-48" fill="#192E2D" mask="url(#mask-8)" points="80.6169576 64.3529074 85.8209358 65.7446454 84.4267044 60.5499739"></polygon>
            <polygon id="Fill-49" fill="#192E2D" mask="url(#mask-8)" points="61.4213295 42.4769794 60.329655 41.3872572 61.4213295 40.2981513 62.5130041 41.3872572"></polygon>
            <path d="M44.573728,25.6595077 L42.3230754,23.4128801 L43.4141325,22.3231578 L45.6654026,24.5697855 L44.573728,25.6595077 Z M49.0756508,30.1533794 L46.8249981,27.9067517 L47.9160552,26.8170295 L50.1673254,29.0636571 L49.0756508,30.1533794 Z M53.5769561,34.647251 L51.3269209,32.400007 L52.417978,31.3109011 L54.6686307,33.5575287 L53.5769561,34.647251 Z M58.0788788,39.1405063 L55.8282262,36.8938786 L56.9192833,35.8041564 L59.1705534,38.0514004 L58.0788788,39.1405063 Z" id="Fill-50" fill="#192E2D" mask="url(#mask-8)"></path>
            <polygon id="Fill-51" fill="#192E2D" mask="url(#mask-8)" points="40.0718053 21.1659443 38.9801307 20.076222 40.0718053 18.9871161 41.1634798 20.076222"></polygon>
            <path d="M41.0341831,18.1696395 C40.2413606,17.3776185 38.9545677,17.3776185 38.1617452,18.1696395 C37.3683052,18.9616605 37.3683052,20.2455358 38.1617452,21.0369404 C38.9545677,21.8289614 40.2413606,21.8289614 41.0341831,21.0369404 C41.827623,20.2455358 41.827623,18.9616605 41.0341831,18.1696395" id="Fill-52" fill="#192E2D" mask="url(#mask-8)"></path>
        </g>
    </g>
</svg>
