
<svg width="209px" height="209px" viewBox="11 0 209 209" version="1.1" xmlns="http://www.w3.org/2000/svg" xmlns:xlink="http://www.w3.org/1999/xlink">
    <!-- Generator: Sketch 40.3 (33839) - http://www.bohemiancoding.com/sketch -->
    <desc>Created with Sketch.</desc>
    <defs>
        <polygon id="path-1" points="0 147.074074 153.064659 147.074074 153.064659 0 0 0"></polygon>
    </defs>
    <g id="Group-8" stroke="none" stroke-width="1" fill="none" fill-rule="evenodd" transform="translate(11.000000, 0.000000)">
        <circle id="Oval-3" fill="#F5F6F6" cx="104.5" cy="104.5" r="104.5"></circle>
        <g id="Group-68" transform="translate(30.962963, 46.444444)">
            <g id="Group-7">
                <path d="M133.576222,101.901898 C133.576222,103.360253 132.431944,104.592579 130.971708,104.594901 L14.6838668,104.594901 C13.2244077,104.594901 12.0001699,103.470172 12.0001699,102.010268 L12.0001699,24.4643015 C12.0001699,23.0082681 13.1413427,21.7743941 14.6039071,21.7728459 L130.891748,21.7720719 C132.349655,21.7720719 133.576222,22.8991237 133.576222,24.3567052 L133.576222,101.901898 L133.576222,101.901898 Z" id="Fill-1" fill="#192E2D"></path>
                <mask id="mask-2" fill="white">
                    <use xlink:href="#path-1"></use>
                </mask>
                <g id="Clip-4"></g>
                <path d="M140.624711,109.074159 C143.102686,109.074159 145.573674,107.068533 145.573674,104.595366 L0.000388154029,104.596914 C0.000388154029,107.069307 3.00625294,109.074159 5.48578086,109.074159 L140.624711,109.074159 Z" id="Fill-6" fill="#DBE4EC" mask="url(#mask-2)"></path>
                <polygon id="Fill-7" fill="#FFD55C" mask="url(#mask-2)" points="18.1291996 99.3978456 128.116525 99.3978456 128.049762 27.9314567 18.0655424 27.9322307"></polygon>
                <path d="M73.8114474,25.1370493 C73.8114474,25.7013493 73.3534257,26.1572789 72.7882734,26.1572789 C72.2254501,26.1572789 71.7643231,25.7013493 71.7643231,25.1378233 C71.7643231,24.5773937 72.2223448,24.1183678 72.7867208,24.1183678 C73.3510967,24.1183678 73.8114474,24.5750715 73.8114474,25.1370493" id="Fill-8" fill="#443D36" mask="url(#mask-2)"></path>
                <polygon id="Fill-9" fill="#FF9B4A" mask="url(#mask-2)" points="128.525639 27.7245467 118.368424 99.4479281 76.8716538 99.4479281 76.8716538 24.3186207"></polygon>
                <polygon id="Fill-10" fill="#FF9B4A" mask="url(#mask-2)" points="17.5981273 27.7249337 27.914485 99.4382522 68.585264 99.3809707 68.585264 27.8820707"></polygon>
                <polygon id="Fill-11" fill="#FFFFFF" mask="url(#mask-2)" points="118.274025 99.3978456 27.9063338 99.3978456 27.9063338 6.37039741 118.274025 6.37039741"></polygon>
                <polygon id="Fill-12" fill="#58BAC7" mask="url(#mask-2)" points="32.3995272 10.4314996 32.3995272 74.2840959 58.3033743 74.2840959 60.9327297 74.2840959 83.7422129 74.2840959 86.3715683 74.2840959 113.780677 74.2840959 113.780677 10.4307256"></polygon>
                <polygon id="Fill-13" fill="#45525B" mask="url(#mask-2)" points="91.375029 46.926383 83.9162612 55.8530052 65.0768173 34.0930089 32.3996824 74.1048978 113.780832 74.1048978"></polygon>
                <polygon id="Fill-14" fill="#576672" mask="url(#mask-2)" points="65.4540254 74.0011719 65.3391318 34.1967348 32.8475345 74.0011719"></polygon>
                <polygon id="Fill-15" fill="#576672" mask="url(#mask-2)" points="91.5012567 64.7818722 91.5012567 46.95185 84.0813043 55.8103537"></polygon>
                <path d="M95.5215232,31.7249615 C95.5215232,37.4825244 90.8396093,42.1517393 85.06543,42.1517393 C79.2904744,42.1517393 74.6093368,37.4825244 74.6093368,31.7249615 C74.6093368,25.9666244 79.2904744,21.2989578 85.06543,21.2989578 C90.8396093,21.2989578 95.5215232,25.9666244 95.5215232,31.7249615" id="Fill-16" fill="#FFD55C" mask="url(#mask-2)"></path>
                <polygon id="Fill-58" fill="#4C5D6C" mask="url(#mask-2)" points="104.884652 112.281921 104.850495 112.281921 104.883876 112.281921"></polygon>
                <path d="M119.300149,103.800005 L115.065389,103.800005 C114.256476,103.793038 113.605154,103.144364 113.61214,102.337005 C113.619903,101.531968 114.283647,100.867812 115.09256,100.875553 L119.328097,100.875553 C120.137009,100.883294 120.786003,101.53042 120.779016,102.337005 C120.771253,103.144364 120.109062,103.806971 119.300149,103.800005" id="Fill-65" fill="#192E2D" mask="url(#mask-2)"></path>
            </g>
        </g>
    </g>
</svg>
