
<svg width="209px" height="209px" viewBox="11 0 209 209" version="1.1" xmlns="http://www.w3.org/2000/svg" xmlns:xlink="http://www.w3.org/1999/xlink">
    <!-- Generator: Sketch 40.3 (33839) - http://www.bohemiancoding.com/sketch -->
    <desc>Created with Sketch.</desc>
    <defs>
        <polygon id="path-1" points="11.6281681 11.446538 11.6281681 0.304043548 0.462574336 0.304043548 0.462574336 11.446538 11.6281681 11.446538"></polygon>
        <polygon id="path-3" points="0 141.338528 139.247637 141.338528 139.247637 0 0 0"></polygon>
    </defs>
    <g id="Group-11" stroke="none" stroke-width="1" fill="none" fill-rule="evenodd" transform="translate(11.000000, 0.000000)">
        <circle id="Oval-3" fill="#F5F6F6" cx="104.5" cy="104.5" r="104.5"></circle>
        <g id="Page-1" transform="translate(35.386243, 34.280423)">
            <path d="M64.6965973,24.2012854 L64.5344528,22.664688 C66.1891903,22.4891475 67.8747537,22.399523 69.5442876,22.3970506 L69.5467537,23.9423014 C67.9302404,23.9447738 66.2983142,24.0319259 64.6965973,24.2012854 L64.6965973,24.2012854 Z M79.1971283,24.9337343 C77.6231549,24.6018144 76.0084912,24.3502476 74.3981431,24.1852148 L74.5553555,22.6479993 C76.2187242,22.818595 77.8870251,23.0788152 79.5134027,23.4206247 L79.1971283,24.9337343 L79.1971283,24.9337343 Z M55.2102168,26.2292726 L54.7317979,24.7600481 C56.3205678,24.2408438 57.9512611,23.8013745 59.5782552,23.4540021 L59.8994617,24.9652574 C58.3248717,25.3008859 56.7465826,25.726757 55.2102168,26.2292726 L55.2102168,26.2292726 Z M88.4295029,27.9210131 C86.952323,27.2639725 85.425205,26.6792496 83.8913053,26.1822969 L84.3654086,24.7118363 C85.9498628,25.2248595 87.5275354,25.8293617 89.0546534,26.5080358 L88.4295029,27.9210131 L88.4295029,27.9210131 Z M46.357618,30.2018033 L45.5845029,28.8654704 C47.0265413,28.0267083 48.5289985,27.2540829 50.0493348,26.5717001 L50.6794174,27.981587 C49.2077861,28.6429543 47.7540339,29.3896195 46.357618,30.2018033 L46.357618,30.2018033 Z M96.8369749,32.7761912 C95.5305708,31.826171 94.1588156,30.9354884 92.7605501,30.1270132 L93.5299661,28.7882079 C94.975087,29.6226433 96.3918481,30.5442309 97.7420251,31.5257742 L96.8369749,32.7761912 L96.8369749,32.7761912 Z M38.5210428,35.9346838 L37.4883732,34.7881077 C38.7257271,33.6674918 40.0352139,32.6000326 41.3816917,31.6147807 L42.290441,32.8633433 C40.9871195,33.8170721 39.7189395,34.8505358 38.5210428,35.9346838 L38.5210428,35.9346838 Z M104.057647,39.2736617 C102.97504,38.0726928 101.817217,36.9168452 100.616237,35.8364059 L101.645824,34.6861212 C102.886261,35.8030284 104.082308,36.9971983 105.200674,38.2364894 L104.057647,39.2736617 L104.057647,39.2736617 Z M32.0364941,43.1701662 L30.7886593,42.2627949 C31.7689248,40.9091552 32.8305708,39.5932196 33.9452375,38.3502199 L35.0913466,39.3830655 C34.0124381,40.5865068 32.9847006,41.8604116 32.0364941,43.1701662 L32.0364941,43.1701662 Z M109.779562,47.1272444 C108.970072,45.7309558 108.076119,44.3593912 107.122981,43.0508728 L108.367733,42.1391748 C109.352931,43.4909602 110.27586,44.9082643 111.112476,46.3509104 L109.779562,47.1272444 L109.779562,47.1272444 Z M27.1881873,51.5967278 L25.7800575,50.969356 C26.4569956,49.4420301 27.2227124,47.9332472 28.0568628,46.483802 L29.3916268,47.2564274 C28.5846032,48.6582789 27.8435472,50.1194681 27.1881873,51.5967278 L27.1881873,51.5967278 Z M113.747479,56.0006926 C113.245633,54.4622409 112.65624,52.9342969 111.996565,51.4588915 L113.402845,50.8259567 C114.084715,52.3514283 114.69322,53.9306747 115.212329,55.5204287 L113.747479,56.0006926 L113.747479,56.0006926 Z M24.203618,60.8509258 L22.6956121,60.5332223 C23.0383968,58.8977288 23.4724263,57.2609992 23.9853702,55.6693909 L25.4520693,56.1453281 C24.9557714,57.685016 24.5353053,59.2679709 24.203618,60.8509258 L24.203618,60.8509258 Z M115.774594,65.5101661 C115.603819,63.8981604 115.34673,62.2805919 115.010111,60.7019637 L116.5175,60.3780791 C116.865217,62.0098639 117.130937,63.6812072 117.307261,65.3469876 L115.774594,65.5101661 L115.774594,65.5101661 Z M22.129031,70.5112158 L21.6684912,70.4883461 C21.6684912,68.8176209 21.7535708,67.1450414 21.9218805,65.503367 L23.4551637,65.6616006 C23.2924027,67.2507366 23.2097891,68.8701594 23.2097891,70.4747478 L22.129031,70.5112158 L22.129031,70.5112158 Z M117.318358,75.4980492 L115.785692,75.3385793 C115.951535,73.735227 116.035382,72.0984974 116.035382,70.4747478 L116.035382,70.3702889 L117.57668,70.3702889 L117.57668,70.4747478 C117.57668,72.151654 117.489751,73.8415403 117.318358,75.4980492 L117.318358,75.4980492 Z M22.7165737,80.51826 C22.3707065,78.8864751 22.1068363,77.2145137 21.9323614,75.5493515 L23.4656445,75.3880273 C23.6339543,77.0000329 23.8898097,78.6176015 24.2245796,80.1974659 L22.7165737,80.51826 L22.7165737,80.51826 Z M115.244388,85.330171 L113.778305,84.8536156 C114.276453,83.3133096 114.698152,81.7297366 115.031689,80.148636 L116.539695,80.4681938 C116.19506,82.1030692 115.759181,83.7385626 115.244388,85.330171 L115.244388,85.330171 Z M25.8213643,90.0734728 C25.1407271,88.5473831 24.5334558,86.9675187 24.0174292,85.3783828 L25.4828953,84.8999731 C25.9822758,86.4371886 26.5698186,87.9657507 27.2288776,89.4436286 L25.8213643,90.0734728 L25.8213643,90.0734728 Z M111.163031,94.510815 L109.828883,93.7369534 C110.63714,92.33572 111.380046,90.8763851 112.037255,89.3997435 L113.444768,90.0283515 C112.765981,91.5550593 111.998414,93.062606 111.163031,94.510815 L111.163031,94.510815 Z M30.8472286,98.7670538 C29.8644971,97.4152684 28.9428009,95.9973463 28.1068009,94.5522278 L29.4403319,93.77713 C30.249205,95.175891 31.1413083,96.5486918 32.0925973,97.8565921 L30.8472286,98.7670538 L30.8472286,98.7670538 Z M105.266025,102.638834 L104.121149,101.604752 C105.202524,100.400693 106.231494,99.1274063 107.179701,97.8201242 L108.426302,98.7293497 C107.446653,100.079899 106.383774,101.395216 105.266025,102.638834 L105.266025,102.638834 Z M37.5611224,106.226907 C36.3231519,105.109381 35.1283378,103.913975 34.009972,102.672212 L35.1542316,101.636276 C36.2368392,102.839099 37.3934292,103.996801 38.5919425,105.077858 L37.5611224,106.226907 L37.5611224,106.226907 Z M97.821556,109.366238 L96.9140398,108.117057 C98.2179779,107.164565 99.4880074,106.132337 100.686521,105.048807 L101.718574,106.19662 C100.479987,107.315999 99.169267,108.382222 97.821556,109.366238 L97.821556,109.366238 Z M45.6708156,112.133473 C44.2256947,111.297184 42.8101667,110.374978 41.4612227,109.39158 L42.3681224,108.1424 C43.672677,109.093656 45.0431991,109.986193 46.4414646,110.795904 L45.6708156,112.133473 L45.6708156,112.133473 Z M89.1489808,114.399429 L88.5201313,112.988306 C89.9942286,112.328175 91.4485973,111.583364 92.8443968,110.773034 L93.6168953,112.110604 C92.1748569,112.947511 90.6711667,113.717046 89.1489808,114.399429 L89.1489808,114.399429 Z M54.830441,116.220353 C53.2404381,115.703621 51.663382,115.097264 50.1430457,114.417972 L50.7700457,113.006849 C52.2410605,113.663272 53.7669454,114.250467 55.3057773,114.749892 L54.830441,116.220353 L54.830441,116.220353 Z M79.6157448,117.506001 L79.2957714,115.994746 C80.8722109,115.659736 82.4505,115.235719 83.9874823,114.735676 L84.4634351,116.2049 C82.8758982,116.72225 81.2445885,117.160483 79.6157448,117.506001 L79.6157448,117.506001 Z M64.6386445,118.294697 C62.9752758,118.122247 61.3069749,117.860173 59.6805973,117.516509 L59.9993378,116.004636 C61.5733112,116.337792 63.1873584,116.591213 64.79709,116.7581 L64.6386445,118.294697 L64.6386445,118.294697 Z M69.6490959,118.551827 L69.6484794,117.006576 C71.2649926,117.005958 72.8969189,116.92066 74.4986357,116.752537 L74.6589307,118.289752 C73.0041932,118.462821 71.3186298,118.551209 69.6490959,118.551827 L69.6490959,118.551827 Z" id="Fill-1" fill="#576672"></path>
            <path d="M69.8918195,136.843455 C34.4173062,136.843455 5.5561941,107.908325 5.5561941,72.3428324 L7.09749204,72.3428324 C7.09749204,107.056583 35.2668696,135.298204 69.8918195,135.298204 C104.515536,135.298204 132.684297,107.056583 132.684297,72.3428324 L134.225595,72.3428324 C134.225595,107.908325 105.365716,136.843455 69.8918195,136.843455" id="Fill-3" fill="#576672"></path>
            <polygon id="Fill-5" fill="#FFFFFF" points="74.3001782 131.148341 64.8285941 131.12238 64.8113316 140.539757 74.2829156 140.563863"></polygon>
            <path d="M65.5837068,139.769171 L73.5133764,139.789569 L73.5281729,131.919297 L65.5978867,131.897046 L65.5837068,139.769171 Z M75.0515917,141.338528 L64.0393263,141.310714 L64.0590549,130.347468 L75.0725534,130.378373 L75.0515917,141.338528 Z" id="Fill-7" fill="#576672"></path>
            <path d="M134.225349,71.5891827 L132.684051,71.5891827 C132.684051,36.8760506 104.515906,8.63442882 69.8915729,8.63442882 C35.2672395,8.63442882 7.09786195,36.8760506 7.09786195,71.5891827 L5.55656401,71.5891827 C5.55656401,36.0236902 34.4170596,7.08917801 69.8915729,7.08917801 C105.36547,7.08917801 134.225349,36.0236902 134.225349,71.5891827" id="Fill-9" fill="#576672"></path>
            <polygon id="Fill-11" fill="#FFFFFF" points="10.3911224 75.9774478 0.770957227 75.9854831 0.770957227 66.3956566 10.3911224 66.3894756"></polygon>
            <path d="M1.54129794,67.1677257 L1.54129794,75.2123014 L9.62016519,75.2055023 L9.62016519,67.1627809 L1.54129794,67.1677257 Z M0,76.7587884 L0,65.6237111 L11.1614631,65.6162939 L11.1614631,76.7495169 L0,76.7587884 Z" id="Fill-13" fill="#576672"></path>
            <polygon id="Fill-15" fill="#FFFFFF" points="138.474769 75.9780659 128.879881 75.9854831 128.854604 66.3968928 138.449491 66.3894756"></polygon>
            <g id="Group-19" transform="translate(127.619469, 65.312189)">
                <mask id="mask-2" fill="white">
                    <use xlink:href="#path-1"></use>
                </mask>
                <g id="Clip-18"></g>
                <path d="M2.00818791,1.85671155 L2.02914956,9.90005103 L10.0827395,9.89387003 L10.0617779,1.85053055 L2.00818791,1.85671155 Z M0.492167257,11.446538 L0.462574336,0.312696952 L11.5987602,0.304043548 L11.6283531,11.4378846 L0.492167257,11.446538 Z" id="Fill-17" fill="#576672" mask="url(#mask-2)"></path>
            </g>
            <path d="M23.2916628,8.19767913 L119.143132,8.19767913 L23.2916628,8.19767913 Z" id="Fill-20" fill="#FFFFFF"></path>
            <mask id="mask-4" fill="white">
                <use xlink:href="#path-3"></use>
            </mask>
            <g id="Clip-23"></g>
            <polygon id="Fill-22" fill="#576672" mask="url(#mask-4)" points="23.2914779 8.97048996 119.142947 8.97048996 119.142947 7.42523916 23.2914779 7.42523916"></polygon>
            <path d="M26.7240717,12.1296007 C24.6679802,14.2169255 21.3196646,14.2255789 19.2444611,12.1431989 C17.169874,10.0645275 17.1569271,6.68599117 19.2148681,4.59866639 C21.2758917,2.5113416 24.6198917,2.5020701 26.6975614,4.58197768 C28.7702988,6.66064906 28.7850953,10.0398035 26.7240717,12.1296007" id="Fill-24" fill="#FFFFFF" mask="url(#mask-4)"></path>
            <path d="M22.9623183,3.79977172 C21.7533242,3.79977172 20.6170794,4.27632707 19.7625838,5.14166752 C18.0055041,6.92550505 18.0166015,9.82068695 19.7890941,11.5964892 C20.6448227,12.4550305 21.777985,12.9278773 22.9808139,12.9278773 C24.189808,12.9278773 25.3242032,12.4513219 26.1756162,11.5872177 C27.9351619,9.80276204 27.9246811,6.90510774 26.152805,5.12806931 C25.2970764,4.27200037 24.1639142,3.79977172 22.9623183,3.79977172 M22.9808139,14.4731281 C21.3661501,14.4731281 19.8458139,13.8389571 18.6990882,12.6892905 C16.3291885,10.3151672 16.314392,6.4415325 18.6670292,4.05504716 C19.8137549,2.89425475 21.3390233,2.25452092 22.9623183,2.25452092 C24.5751324,2.25452092 26.0954687,2.88683755 27.2421944,4.03526795 C29.6120941,6.41186368 29.6256575,10.2867346 27.2717873,12.6726018 C26.1287608,13.8327761 24.6047254,14.4731281 22.9808139,14.4731281" id="Fill-25" fill="#576672" mask="url(#mask-4)"></path>
            <path d="M122.684911,12.1296007 C120.62882,14.2181617 117.280504,14.2274332 115.205917,12.1456713 C113.130714,10.0645275 113.117767,6.68599117 115.175708,4.59866639 C117.234882,2.5113416 120.582581,2.5020701 122.659634,4.58197768 C124.733604,6.66064906 124.744085,10.0398035 122.684911,12.1296007" id="Fill-26" fill="#FFFFFF" mask="url(#mask-4)"></path>
            <path d="M118.923466,3.79977172 C117.713855,3.79977172 116.576994,4.27632707 115.723732,5.14166752 C113.966652,6.92488695 113.978366,9.82192315 115.750858,11.5995797 C116.605354,12.4568848 117.7379,12.9291135 118.940112,12.9291135 C120.149106,12.9291135 121.284735,12.45194 122.136147,11.5872177 C123.895693,9.80090774 123.886445,6.90387154 122.114569,5.12806931 C121.259457,4.27200037 120.125678,3.79977172 118.923466,3.79977172 M118.940112,14.4743643 C117.326065,14.4743643 115.806345,13.8414295 114.660853,12.692381 C112.290953,10.3157853 112.276156,6.4409144 114.62756,4.05504716 C115.773053,2.89425475 117.298322,2.25452092 118.923466,2.25452092 C120.537513,2.25452092 122.057233,2.88683755 123.203959,4.03526795 C125.573242,6.41000938 125.586189,10.2842622 123.232935,12.6726018 C122.089292,13.8340123 120.565257,14.4743643 118.940112,14.4743643" id="Fill-27" fill="#576672" mask="url(#mask-4)"></path>
            <polygon id="Fill-28" fill="#FFFFFF" mask="url(#mask-4)" points="69.911733 14.4595917 63.1947566 7.76309279 69.8260369 1.09193603 76.5411637 7.78967111"></polygon>
            <path d="M64.2853791,7.7606822 L69.909267,13.3674702 L75.4505413,7.79220532 L69.8285029,2.1841811 L64.2853791,7.7606822 Z M69.9141991,15.5518368 L62.1047507,7.765627 L69.8235708,-0.000185430096 L77.6311696,7.78726052 L69.9141991,15.5518368 Z" id="Fill-29" fill="#576672" mask="url(#mask-4)"></path>
            <path d="M120.024939,73.3324111 C118.608178,73.3348835 117.457753,72.1821264 117.457753,70.7623499 C117.457753,69.3407192 118.608178,68.1898164 120.024939,68.1885802 C121.442317,68.1885802 122.591509,69.339483 122.591509,70.7617318 C122.591509,72.1821264 121.442317,73.3324111 120.024939,73.3324111 L120.024939,73.3324111 Z M79.4216029,60.8350407 L66.608485,60.836895 L66.608485,80.7088203 L76.4086737,80.7075841 L125.589641,80.7026393 L125.589641,60.8294778 L79.4216029,60.8350407 Z" id="Fill-30" fill="#45525B" mask="url(#mask-4)"></path>
            <path d="M66.6081767,60.8569214 L66.6081767,66.5465349 L115.273734,66.510067 C117.518481,66.5094489 119.337212,64.6835805 119.337212,62.4336953 L119.337212,60.8192173 L66.6081767,60.8569214 Z" id="Fill-31" fill="#657077" mask="url(#mask-4)"></path>
            <g id="Group-45" mask="url(#mask-4)" fill="#FFFFFF">
                <g transform="translate(68.433628, 60.367386)">
                    <polygon id="Fill-32" points="47.6694475 0.44249802 47.6719136 3.27586989 48.4413295 3.27525179 48.4376304 0.44311612"></polygon>
                    <polygon id="Fill-33" points="32.6947516 3.27945487 32.6947516 0.4429925 31.9222531 0.4436106 31.9278018 3.28069107"></polygon>
                    <polygon id="Fill-34" points="40.5668383 3.27704428 40.5693044 0.443672411 39.7955729 0.443672411 39.7974224 3.27704428"></polygon>
                    <polygon id="Fill-35" points="43.7337124 3.27704428 44.5049779 3.27642618 44.5031283 0.44305431 43.7337124 0.443672411"></polygon>
                    <polygon id="Fill-36" points="35.8580499 0.444290511 35.8580499 3.27951668 36.6323979 3.27766238 36.6293153 0.44305431"></polygon>
                    <polygon id="Fill-37" points="16.1770316 0.446083002 16.1770316 3.28439968 16.9482971 3.28378158 16.945831 0.446083002"></polygon>
                    <polygon id="Fill-38" points="24.0520776 3.28186547 24.8202605 3.28124736 24.8202605 0.444784991 24.050228 0.446021192"></polygon>
                    <polygon id="Fill-39" points="27.9868879 3.2808765 28.7587699 3.2808765 28.7587699 0.445032231 27.9868879 0.445032231"></polygon>
                    <polygon id="Fill-40" points="20.115726 3.28310167 20.8851419 3.28186547 20.8851419 0.446021192 20.1138764 0.444784991"></polygon>
                    <polygon id="Fill-41" points="0.430453687 3.28792285 1.19863658 3.28730475 1.20171917 0.449606174 0.430453687 0.448369973"></polygon>
                    <polygon id="Fill-42" points="8.30254041 3.28551226 9.07318938 3.28551226 9.07503894 0.447195582 8.30254041 0.447813683"></polygon>
                    <polygon id="Fill-43" points="12.2412965 3.28427606 13.0107124 3.28489416 13.0107124 0.447195582 12.2412965 0.445959382"></polygon>
                    <polygon id="Fill-44" points="4.36618879 3.28668665 5.13683776 3.28606855 5.13683776 0.447133772 4.36618879 0.445897572"></polygon>
                </g>
            </g>
            <polygon id="Fill-46" fill="#FFFFFF" mask="url(#mask-4)" points="12.9721799 80.6682729 67.8423864 80.6682729 67.8423864 60.8890626 12.9721799 60.8890626"></polygon>
            <polygon id="Fill-47" fill="#F15424" mask="url(#mask-4)" points="14.9234631 78.5809481 26.2143953 78.5809481 26.2143953 62.9770055 14.9234631 62.9770055"></polygon>
            <polygon id="Fill-48" fill="#FFD55C" mask="url(#mask-4)" points="28.149649 78.5809481 39.4405811 78.5809481 39.4405811 62.9770055 28.149649 62.9770055"></polygon>
            <polygon id="Fill-49" fill="#0FE7F8" mask="url(#mask-4)" points="41.3758348 78.5809481 52.666767 78.5809481 52.666767 62.9770055 41.3758348 62.9770055"></polygon>
            <polygon id="Fill-50" fill="#192E2D" mask="url(#mask-4)" points="54.6020206 78.5809481 65.8929528 78.5809481 65.8929528 62.9770055 54.6020206 62.9770055"></polygon>
            <polygon id="Fill-51" fill="#FFF6DC" mask="url(#mask-4)" points="76.7337643 109.212393 69.7843602 127.205293 62.9114044 109.310053 69.8953336 51.2753775"></polygon>
            <polygon id="Fill-52" fill="#E5DAC1" mask="url(#mask-4)" points="76.7337643 109.212393 69.7843602 127.205293 72.866956 109.449125 74.762136 104.678009"></polygon>
            <path d="M66.8549693,51.2751921 L66.8537363,73.4192542 L66.8537363,102.261669 L66.8537363,108.527352 C66.8537363,109.677019 67.7914619,110.611587 68.9357215,110.613441 L70.6120372,110.613441 C71.7593794,110.611587 72.6890903,109.677637 72.6890903,108.526734 L72.6890903,73.4204904 L72.6934059,51.2751921 L66.8549693,51.2751921 Z" id="Fill-53" fill="#FFD55C" mask="url(#mask-4)"></path>
            <polygon id="Fill-54" fill="#FFD55C" mask="url(#mask-4)" points="76.928831 108.570187 69.5077897 103.695848 62.6329844 108.571423 62.6329844 51.2753775 76.9263649 51.2753775"></polygon>
            <polygon id="Fill-55" fill="#3C4449" mask="url(#mask-4)" points="69.7979236 128.553432 73.0420475 118.795482 66.5433189 118.796718"></polygon>
            <path d="M72.6890286,73.4205522 L72.6890286,108.526796 C72.6890286,109.677699 73.6261378,110.612885 74.7679313,110.612885 L74.8338988,110.612885 C75.9793914,110.612885 76.9263649,109.678317 76.9263649,108.526796 L76.9263649,73.4205522 L76.9263649,51.2752539 L72.6908782,51.2752539 L72.6890286,73.4205522 Z" id="Fill-56" fill="#FCBB51" mask="url(#mask-4)"></path>
            <path d="M66.8537979,73.419316 L66.8537979,102.261731 L66.8537979,108.527414 C66.8537979,109.677081 67.7909071,110.611648 68.9357832,110.613503 L70.6120988,110.613503 C71.759441,110.611648 72.6891519,109.677699 72.6891519,108.526796 L72.6891519,73.4205522 L72.6910015,51.2752539 L66.855031,51.2752539 L66.8537979,73.419316 Z" id="Fill-57" fill="#FDC856" mask="url(#mask-4)"></path>
            <path d="M62.6326761,108.527291 C62.6326761,109.676957 63.5599209,110.611525 64.7115788,110.613379 L64.7726142,110.613997 C65.9236555,110.612761 66.8539829,109.676957 66.8539829,108.527291 L66.8552159,51.2751302 L62.6326761,51.2751302 L62.6326761,108.527291 Z" id="Fill-58" fill="#FFD55C" mask="url(#mask-4)"></path>
            <path d="M70.7425543,16.9573351 L70.0588345,16.9585713 L69.9601914,16.9542446 L69.0150676,16.9542446 L60.0706074,35.7030816 C60.0706074,35.7030816 62.8597401,37.5270957 64.1957372,39.7541111 C65.798687,42.4298674 66.265392,45.52655 66.265392,45.52655 C67.2018847,45.52655 68.7105071,45.5302586 69.9651236,45.5290224 C70.0526693,45.5302586 70.1371324,45.5302586 70.2209791,45.5290224 C71.4244245,45.5290224 72.5643684,45.5302586 73.4971619,45.5302586 C73.4971619,45.5302586 73.9651,42.4341941 75.5674333,39.7584378 C76.9021973,37.5345129 79.688864,35.7104988 79.688864,35.7104988 L70.7425543,16.9573351 Z" id="Fill-59" fill="#D1DEE5" mask="url(#mask-4)"></path>
            <path d="M67.601574,33.3949096 C67.599108,34.654598 68.6163646,35.6750817 69.8765298,35.6750817 C71.1329959,35.6750817 72.1545681,34.654598 72.1545681,33.397382 C72.1545681,32.448598 71.5738071,31.6357961 70.7532201,31.2921323 L70.7489044,16.8378563 L68.9998395,16.8378563 L69.0016891,31.2908961 C68.1804855,31.6333237 67.601574,32.4461256 67.601574,33.3949096" id="Fill-60" fill="#576672" mask="url(#mask-4)"></path>
            <polygon id="Fill-61" fill="#E5E3EB" mask="url(#mask-4)" points="76.0203283 48.4961512 63.4698475 48.4924426 63.4673814 45.488475 76.0166292 45.4958922"></polygon>
            <polygon id="Fill-62" fill="#CFDBE5" mask="url(#mask-4)" points="77.0733431 52.2059275 62.3021602 52.2059275 62.3040097 48.4355156 77.0733431 48.437988"></polygon>
        </g>
    </g>
</svg>
