<svg width="126px" height="119px" viewBox="658 285 126 119" version="1.1" xmlns="http://www.w3.org/2000/svg" xmlns:xlink="http://www.w3.org/1999/xlink">
    <!-- Generator: Sketch 39.1 (31720) - http://www.bohemiancoding.com/sketch -->
    <desc>Created with Sketch.</desc>
    <defs>
        <polygon id="path-1" points="9.17135417 7.59665286 9.17135417 0.348229956 0.46375 0.348229956 0.46375 7.59665286 9.17135417 7.59665286"></polygon>
        <polygon id="path-3" points="0 117.480176 124.796354 117.480176 124.796354 0.173101322 0 0.173101322"></polygon>
    </defs>
    <g id="Page-1" stroke="none" stroke-width="1" fill="none" fill-rule="evenodd" transform="translate(658.000000, 285.000000)">
        <g id="Group-102" transform="translate(0.000000, 0.346722)">
            <path d="M78.5339583,102.210352 C75.7855208,102.210352 76.2495833,99.4292952 76.2495833,99.4292952 L76.2495833,95.8009251 L76.2495833,85.1778062 L64.1402083,85.2427841 L49.788125,85.1778062 L49.788125,95.8009251 L49.788125,99.4292952 C49.788125,99.4292952 50.2532292,102.210352 47.50375,102.210352 L41.2396875,102.210352 L41.2396875,104.094714 L63.7740625,104.094714 L64.5089583,104.094714 L84.7980208,104.094714 L84.7980208,102.210352 L78.5339583,102.210352 L78.5339583,102.210352 Z" id="Fill-4" fill="#FFFFFF"></path>
            <path d="M77.8549479,102.135186 L77.8528646,102.135186 C75.8757813,101.70893 76.2497396,99.4295031 76.2497396,99.4295031 L76.2497396,95.8006132 L76.2497396,85.1780141 L64.1403646,85.2429921 L54.7289063,85.2014062 C54.5716146,85.2539084 54.4179688,85.3090097 54.2763021,85.3599524 L49.7882813,88.069274 L49.7882813,92.5205251 L59.5179688,102.135186 L77.8549479,102.135186 Z" id="Fill-6" fill="#576672"></path>
            <path d="M16.2554688,90.9630291 C15.9502604,90.9630291 15.7028646,90.7150731 15.7028646,90.4109762 L15.7028646,29.6498132 C15.7028646,29.3462361 15.9502604,29.0988 16.2554688,29.0988 L109.782031,29.0988 C110.08776,29.0988 110.336719,29.3462361 110.336719,29.6498132 L110.336719,90.4109762 C110.336719,90.7140335 110.08776,90.9630291 109.782031,90.9630291 L16.2554688,90.9630291 Z" id="Fill-8" fill="#FFFFFF"></path>
            <path d="M109.782188,26.8587233 L16.255625,26.8592432 C14.7108333,26.8592432 13.4577083,28.1083797 13.4577083,29.6496573 L13.4577083,90.4108203 C13.4577083,91.9541771 14.7108333,93.2007145 16.255625,93.2007145 L109.782188,93.2007145 C111.326979,93.2007145 112.580104,91.9541771 112.580104,90.4108203 L112.580104,29.6501771 C112.580104,28.1083797 111.326979,26.8587233 109.782188,26.8587233 L109.782188,26.8587233 Z M17.9467708,88.7234722 L108.092083,88.7234722 L108.092083,31.3390846 L17.9467708,31.3390846 L17.9467708,88.7234722 Z" id="Fill-10" fill="#192E2D"></path>
            <path d="" id="Fill-12" fill="#5A6D7A"></path>
            <path d="M112.430104,90.8757507 L112.430625,90.8757507 L112.430104,90.8757507 Z" id="Fill-14" fill="#5A6D7A"></path>
            <polygon id="Fill-16" fill="#576672" points="27.8129688 29.5928925 34.2702604 88.7478 65.2853646 88.7478 65.2853646 29.7160907"></polygon>
            <polygon id="Fill-18" fill="#576672" points="100.240104 29.5928925 94.1453125 88.7478 63.1307292 88.7478 63.1307292 29.7160907"></polygon>
            <g id="Group-22" transform="translate(115.625000, 57.700441)">
                <mask id="mask-2" fill="white">
                    <use xlink:href="#path-1"></use>
                </mask>
                <g id="Clip-21"></g>
                <path d="M5.548125,0.348229956 C7.55020833,0.348229956 9.1715625,1.9815163 9.1715625,3.97815947 C9.17260417,5.97532247 7.55020833,7.59665286 5.548125,7.59613304 L0.46375,7.59665286 L0.46375,0.348229956 L5.548125,0.348229956 Z" id="Fill-20" fill="#FF9975" mask="url(#mask-2)"></path>
            </g>
            <polygon id="Fill-23" fill="#FFF6DC" points="9.80072917 65.1982749 0.6840625 61.6749093 9.75177083 58.1900106 114.733021 61.7320899"></polygon>
            <polygon id="Fill-25" fill="#E5DAC1" points="9.80072917 65.1982749 0.6840625 61.6749093 9.68041667 63.2380194 12.0996875 64.1991736"></polygon>
            <polygon id="Fill-27" fill="#FFD55C" points="10.1267708 65.2972493 12.5960417 61.5352846 10.1257292 58.0488264 117.200208 58.0488264 117.200208 65.2972493"></polygon>
            <path d="M116.96651,60.1903965 L113.752969,60.188837 L13.3227604,60.188837 L10.1488021,60.1893568 C9.56546875,60.188837 9.09151042,60.6644758 9.09098958,61.2451189 L9.09098958,62.0939912 C9.09255208,62.6761938 9.56546875,63.1487137 10.1488021,63.1481938 L112.75349,63.1481938 L113.752448,63.1487137 L116.96651,63.1497533 C117.550885,63.1497533 119.455052,62.675674 119.455052,62.0939912 L119.455052,61.2477181 C119.455052,60.6644758 117.549844,60.1903965 116.96651,60.1903965" id="Fill-29" fill="#FFD55C"></path>
            <path d="M116.96651,63.1499612 L113.752448,63.1489216 L112.75349,63.1484018 L10.1488021,63.1484018 C9.56546875,63.1489216 9.09151042,63.6224811 9.09151042,64.2015648 L9.09151042,64.2353533 C9.09151042,64.8165163 9.56546875,65.2968335 10.1488021,65.2973533 L112.75349,65.2973533 L113.752448,65.2968335 L116.967552,65.2973533 C117.550885,65.2973533 119.455052,64.8185956 119.455052,64.2337938 L119.455052,64.2015648 C119.455052,63.6219612 117.550885,63.1499612 116.96651,63.1499612" id="Fill-31" fill="#FCBB51"></path>
            <path d="M116.96651,58.0486705 L10.1482812,58.0486705 C9.56546875,58.0486705 9.09255208,58.519111 9.09098958,59.1028731 L9.09046875,59.1345824 C9.09098958,59.7178247 9.56546875,60.188785 10.1488021,60.1893048 L116.96651,60.1903445 C117.549844,60.1903445 119.455052,59.7204238 119.45401,59.135622 L119.45401,59.1049524 C119.45401,58.5180714 117.550885,58.0486705 116.96651,58.0486705" id="Fill-33" fill="#FFD55C"></path>
            <polygon id="Fill-35" fill="#3C4449" points="0 61.6818229 4.9453125 63.3270652 4.94427083 60.0308626"></polygon>
            <path d="M116.96651,60.1903965 L113.752969,60.188837 L13.3227604,60.188837 L10.1488021,60.1893568 C9.56546875,60.188837 9.09151042,60.6644758 9.09098958,61.2451189 L9.09098958,62.0939912 C9.09255208,62.6761938 9.56546875,63.1487137 10.1488021,63.1481938 L112.75349,63.1481938 L113.752448,63.1487137 L116.96651,63.1497533 C117.550885,63.1497533 119.455052,62.675674 119.455052,62.0939912 L119.455052,61.2477181 C119.455052,60.6644758 117.549844,60.1903965 116.96651,60.1903965" id="Fill-37" fill="#FCBB51"></path>
            <polygon id="Fill-39" fill="#E7EDF2" points="116.206354 61.1168264 116.206354 65.2967295 119.700104 65.2967295 119.699063 58.0498661 116.205313 58.0488264"></polygon>
            <polygon id="Fill-41" fill="#CFDBE5" points="119.700104 65.2967295 119.6975 63.1576546 116.205313 63.1576546 116.213646 65.2972493"></polygon>
            <polygon id="Fill-43" fill="#F3F7F9" points="34.3139583 88.6116581 34.3139583 13.5589797 94.2420833 13.5584599 94.2420833 88.6116581"></polygon>
            <path d="M39.928125,83.5907841 L47.5177083,83.5907841 L47.5177083,76.0159119 L39.928125,76.0159119 L39.928125,83.5907841 Z M39.928125,75.384326 L47.5177083,75.384326 L47.5177083,67.8104934 L39.928125,67.8104934 L39.928125,75.384326 Z M39.928125,67.1778678 L47.5177083,67.1778678 L47.5177083,59.6055947 L39.928125,59.6055947 L39.928125,67.1778678 Z M39.928125,58.9740088 L47.5177083,58.9740088 L47.5177083,51.3996564 L39.928125,51.3996564 L39.928125,58.9740088 Z M39.928125,50.7675507 L47.5177083,50.7675507 L47.5177083,43.1921586 L39.928125,43.1921586 L39.928125,50.7675507 Z M48.15,26.1507753 L55.7401042,26.1507753 L55.7401042,18.5764229 L48.15,18.5764229 L48.15,26.1507753 Z M63.9614583,18.5759031 L63.9614583,26.1507753 L56.3723958,26.1507753 L56.3729167,18.5759031 L63.9614583,18.5759031 Z M64.5932292,26.1507753 L72.1822917,26.1507753 L72.1822917,18.5764229 L64.5932292,18.5764229 L64.5932292,26.1507753 Z M72.8135417,26.1507753 L80.4052083,26.1507753 L80.4052083,18.5764229 L72.8135417,18.5764229 L72.8135417,26.1507753 Z M81.0395833,26.1507753 L88.6276042,26.1507753 L88.6276042,18.5764229 L81.0395833,18.5764229 L81.0395833,26.1507753 Z M81.0395833,34.3572335 L88.6276042,34.3572335 L88.6276042,26.7823612 L81.0395833,26.7823612 L81.0395833,34.3572335 Z M81.0395833,42.5616123 L88.6276042,42.5616123 L88.6276042,34.9882996 L81.0395833,34.9882996 L81.0395833,42.5616123 Z M81.0395833,50.7670308 L88.6276042,50.7670308 L88.6276042,43.1921586 L81.0395833,43.1921586 L81.0395833,50.7670308 Z M81.0395833,58.9740088 L88.6276042,58.9740088 L88.6276042,51.3991366 L81.0395833,51.3991366 L81.0395833,58.9740088 Z M81.0395833,67.1778678 L88.6276042,67.1778678 L88.6276042,59.6055947 L81.0395833,59.6055947 L81.0395833,67.1778678 Z M81.0395833,75.3848458 L88.6276042,75.3848458 L88.6276042,67.8104934 L81.0395833,67.8104934 L81.0395833,75.3848458 Z M72.8135417,83.5907841 L80.4041667,83.5907841 L80.4041667,76.0159119 L72.8135417,76.0159119 L72.8135417,83.5907841 Z M56.3713542,76.0159119 L63.959375,76.0159119 L63.959375,83.591304 L56.3708333,83.591304 L56.3713542,76.0159119 Z M48.1489583,83.5907841 L55.7390625,83.5907841 L55.7390625,76.0159119 L48.1489583,76.0159119 L48.1489583,83.5907841 Z M39.9276042,42.562652 L47.5171875,42.562652 L47.5171875,34.9888194 L39.9276042,34.9888194 L39.9276042,42.562652 Z M39.9276042,34.3572335 L47.5171875,34.3572335 L47.5171875,26.7823612 L39.9276042,26.7823612 L39.9276042,34.3572335 Z M39.9276042,26.1507753 L47.5171875,26.1507753 L47.5171875,18.5764229 L39.9276042,18.5764229 L39.9276042,26.1507753 Z M55.7401042,34.3572335 L48.15,34.3572335 L48.15,26.7818414 L55.7401042,26.7818414 L55.7401042,34.3572335 Z M63.9609375,34.3572335 L56.3723958,34.3572335 L56.3723958,26.7818414 L63.9614583,26.7818414 L63.9609375,34.3572335 Z M64.5932292,34.3572335 L72.1822917,34.3572335 L72.1822917,26.7823612 L64.5932292,26.7823612 L64.5932292,34.3572335 Z M72.8135417,34.3572335 L80.4052083,34.3572335 L80.4052083,26.7823612 L72.8135417,26.7823612 L72.8135417,34.3572335 Z M72.8135417,75.384326 L80.4041667,75.384326 L80.4041667,67.8099736 L72.8135417,67.8099736 L72.8135417,75.384326 Z M64.5932292,75.384326 L72.1822917,75.384326 L72.1822917,67.8099736 L64.5932292,67.8099736 L64.5932292,75.384326 Z M56.3713542,67.8104934 L63.9598958,67.8099736 L63.959375,75.3848458 L56.3713542,75.3848458 L56.3713542,67.8104934 Z M55.7401042,67.8104934 L55.7395833,75.3848458 L48.1489583,75.3848458 L48.1489583,67.8104934 L55.7401042,67.8104934 Z M55.7401042,59.6055947 L55.7401042,67.1778678 L48.1489583,67.1778678 L48.1494792,59.6055947 L55.7401042,59.6055947 Z M48.15,58.9740088 L55.7401042,58.9740088 L55.7401042,51.3996564 L48.15,51.3996564 L48.15,58.9740088 Z M48.15,50.7675507 L55.7401042,50.7675507 L55.7401042,43.1921586 L48.15,43.1921586 L48.15,50.7675507 Z M55.7401042,42.562652 L48.1494792,42.562652 L48.15,34.9888194 L55.7401042,34.9888194 L55.7401042,42.562652 Z M63.9604167,42.562652 L56.3723958,42.562652 L56.3723958,34.9888194 L63.9609375,34.9888194 L63.9604167,42.562652 Z M72.1822917,42.5616123 L64.5932292,42.562652 L64.5932292,34.9888194 L72.1822917,34.9882996 L72.1822917,42.5616123 Z M72.8135417,42.5616123 L72.8135417,34.9882996 L80.4052083,34.9882996 L80.4041667,42.5616123 L72.8135417,42.5616123 Z M72.8135417,50.7670308 L80.4046875,50.7670308 L80.4046875,43.1921586 L72.8135417,43.1921586 L72.8135417,50.7670308 Z M72.8135417,58.9740088 L80.4046875,58.9740088 L80.4046875,51.3991366 L72.8135417,51.3991366 L72.8135417,58.9740088 Z M72.8135417,59.6055947 L80.4041667,59.6055947 L80.4041667,67.1778678 L72.8135417,67.1778678 L72.8135417,59.6055947 Z M64.5932292,67.1778678 L72.1822917,67.1778678 L72.1822917,59.6055947 L64.5932292,59.6055947 L64.5932292,67.1778678 Z M56.3713542,59.6055947 L63.9604167,59.6055947 L63.9598958,67.1778678 L56.3713542,67.1778678 L56.3713542,59.6055947 Z M63.9604167,50.7675507 L56.371875,50.7675507 L56.3723958,43.1921586 L63.9604167,43.1921586 L63.9604167,50.7675507 Z M64.5932292,50.7675507 L64.5932292,43.1921586 L72.1822917,43.1921586 L72.1822917,50.7670308 L64.5932292,50.7675507 Z M64.5932292,51.3996564 L72.1822917,51.3991366 L72.1822917,58.9740088 L64.5932292,58.9740088 L64.5932292,51.3996564 Z M56.371875,51.3996564 L63.9604167,51.3996564 L63.9604167,58.9740088 L56.3713542,58.9740088 L56.371875,51.3996564 Z M64.5932292,83.5907841 L72.1822917,83.5907841 L72.1822917,76.0159119 L64.5932292,76.0159119 L64.5932292,83.5907841 Z M81.0395833,83.591304 L88.6276042,83.591304 L88.6276042,76.0164317 L81.0395833,76.0164317 L81.0395833,83.591304 Z M88.6276042,17.9443172 L88.6276042,17.9443172 L81.0395833,17.9443172 L80.4052083,17.9443172 L72.8135417,17.9443172 L72.1822917,17.9443172 L64.5932292,17.944837 L64.5932292,17.9443172 L63.9614583,17.9443172 L63.9614583,17.944837 L56.3729167,17.944837 L56.3729167,17.9443172 L55.7401042,17.9443172 L55.7401042,17.944837 L39.296875,17.944837 L39.2963542,17.944837 L39.2963542,50.7675507 L39.2963542,51.3996564 L39.2963542,58.9740088 L39.2963542,59.6055947 L39.2963542,67.1778678 L39.2963542,67.8104934 L39.2963542,75.3848458 L39.2963542,76.0159119 L39.2963542,83.591304 L39.2963542,83.5959824 L39.2963542,83.9941674 L39.2963542,84.2244493 L88.6276042,84.2234097 L88.6276042,84.2244493 L89.2588542,84.2244493 L89.2588542,83.5949427 L89.2588542,17.9443172 L88.6276042,17.9443172 Z" id="Fill-45" fill="#45525B"></path>
            <mask id="mask-4" fill="white">
                <use xlink:href="#path-3"></use>
            </mask>
            <g id="Clip-48"></g>
            <polygon id="Fill-47" fill="#687B8A" mask="url(#mask-4)" points="88.7979167 55.0384229 104.584375 55.0384229 104.584375 33.4709339 88.7979167 33.4709339"></polygon>
            <polygon id="Fill-49" fill="#45525B" mask="url(#mask-4)" points="88.7979167 36.063815 104.584375 36.063815 104.584375 33.4709339 88.7979167 33.4709339"></polygon>
            <polygon id="Fill-50" fill="#687B8A" mask="url(#mask-4)" points="88.7979167 36.4427665 94.8390625 36.4427665 94.8390625 34.3988194 88.7979167 34.3988194"></polygon>
            <path d="M91.4116146,38.4578115 C91.4116146,38.8539172 91.0902604,39.1751683 90.6918229,39.1751683 C90.2939062,39.1751683 89.9715104,38.8539172 89.9715104,38.4578115 C89.9715104,38.0591066 90.2939062,37.739415 90.6918229,37.739415 C91.0902604,37.739415 91.4116146,38.0591066 91.4116146,38.4578115" id="Fill-51" fill="#94AEC4" mask="url(#mask-4)"></path>
            <polygon id="Fill-52" fill="#94AEC4" mask="url(#mask-4)" points="92.3114583 39.2103084 93.8223958 39.2103084 93.8223958 37.703859 92.3114583 37.703859"></polygon>
            <polygon id="Fill-53" fill="#94AEC4" mask="url(#mask-4)" points="94.7807292 38.6748899 103.435938 38.6748899 103.435938 38.2392775 94.7807292 38.2392775"></polygon>
            <path d="M91.4116146,43.0651656 C91.4116146,43.4638705 91.0902604,43.7851216 90.6918229,43.7851216 C90.2939062,43.7851216 89.9715104,43.4638705 89.9715104,43.0651656 C89.9715104,42.6690599 90.2939062,42.3478088 90.6918229,42.3478088 C91.0902604,42.3478088 91.4116146,42.6690599 91.4116146,43.0651656" id="Fill-54" fill="#94AEC4" mask="url(#mask-4)"></path>
            <polygon id="Fill-55" fill="#FFFFFF" mask="url(#mask-4)" points="92.3114583 44.5343436 95.390625 44.5343436 95.390625 41.4616652 92.3114583 41.4616652"></polygon>
            <path d="M92.4864583,44.3607225 L95.2166667,44.3607225 L95.2166667,41.6358062 L92.4864583,41.6358062 L92.4864583,44.3607225 Z M92.1385417,44.7084846 L95.565625,44.7084846 L95.565625,41.2880441 L92.1385417,41.2880441 L92.1385417,44.7084846 Z" id="Fill-56" fill="#45525B" mask="url(#mask-4)"></path>
            <polygon id="Fill-57" fill="#94AEC4" mask="url(#mask-4)" points="96.3494792 43.2592159 103.435937 43.2592159 103.435937 42.8241233 96.3494792 42.8241233"></polygon>
            <path d="M91.4116146,48.1699912 C91.4116146,48.5676564 91.0902604,48.8889075 90.6918229,48.8889075 C90.2939062,48.8889075 89.9715104,48.5676564 89.9715104,48.1699912 C89.9715104,47.7733656 90.2939062,47.4515947 90.6918229,47.4515947 C91.0902604,47.4515947 91.4116146,47.7733656 91.4116146,48.1699912" id="Fill-58" fill="#94AEC4" mask="url(#mask-4)"></path>
            <polygon id="Fill-59" fill="#94AEC4" mask="url(#mask-4)" points="92.3114583 48.9247753 93.8223958 48.9247753 93.8223958 47.4162467 92.3114583 47.4162467"></polygon>
            <polygon id="Fill-60" fill="#94AEC4" mask="url(#mask-4)" points="94.7807292 48.3877974 103.435938 48.3877974 103.435938 47.952185 94.7807292 47.952185"></polygon>
            <path d="M91.4116146,52.1386899 C91.4116146,52.5363551 91.0902604,52.858126 90.6918229,52.858126 C90.2939062,52.858126 89.9715104,52.5363551 89.9715104,52.1386899 C89.9715104,51.7425841 90.2939062,51.4202934 90.6918229,51.4202934 C91.0902604,51.4202934 91.4116146,51.7425841 91.4116146,52.1386899" id="Fill-61" fill="#94AEC4" mask="url(#mask-4)"></path>
            <polygon id="Fill-62" fill="#94AEC4" mask="url(#mask-4)" points="92.3114583 52.8931101 93.8223958 52.8931101 93.8223958 51.3856211 92.3114583 51.3856211"></polygon>
            <polygon id="Fill-63" fill="#94AEC4" mask="url(#mask-4)" points="94.7807292 52.356652 103.435938 52.356652 103.435938 51.9215595 94.7807292 51.9215595"></polygon>
            <polygon id="Fill-64" fill="#45525B" mask="url(#mask-4)" points="89.1177083 40.3404053 104.321354 40.3404053 104.321354 40.0804934 89.1177083 40.0804934"></polygon>
            <polygon id="Fill-65" fill="#45525B" mask="url(#mask-4)" points="89.1177083 46.1525551 104.321354 46.1525551 104.321354 45.8921233 89.1177083 45.8921233"></polygon>
            <polygon id="Fill-66" fill="#45525B" mask="url(#mask-4)" points="89.1177083 50.2835947 104.321354 50.2835947 104.321354 50.023163 89.1177083 50.023163"></polygon>
            <polygon id="Fill-67" fill="#687B8A" mask="url(#mask-4)" points="22.1869792 83.8886432 28.403125 83.8886432 28.403125 34.1248722 22.1869792 34.1248722"></polygon>
            <polygon id="Fill-68" fill="#45525B" mask="url(#mask-4)" points="22.1869792 36.4864317 28.403125 36.4864317 28.403125 34.1243524 22.1869792 34.1243524"></polygon>
            <polygon id="Fill-69" fill="#94AEC4" mask="url(#mask-4)" points="23.7369792 41.1009075 26.6942708 41.1009075 26.6942708 38.149348 23.7369792 38.149348"></polygon>
            <polygon id="Fill-70" fill="#94AEC4" mask="url(#mask-4)" points="23.7369792 45.530326 26.6942708 45.530326 26.6942708 42.5777269 23.7369792 42.5777269"></polygon>
            <polygon id="Fill-71" fill="#94AEC4" mask="url(#mask-4)" points="23.7369792 49.7611718 26.6942708 49.7611718 26.6942708 46.8080529 23.7369792 46.8080529"></polygon>
            <polygon id="Fill-72" fill="#94AEC4" mask="url(#mask-4)" points="23.7369792 54.7805903 26.6942708 54.7805903 26.6942708 51.8269515 23.7369792 51.8269515"></polygon>
            <polygon id="Fill-73" fill="#94AEC4" mask="url(#mask-4)" points="23.7369792 59.2074097 26.6942708 59.2074097 26.6942708 56.2548106 23.7369792 56.2548106"></polygon>
            <polygon id="Fill-74" fill="#94AEC4" mask="url(#mask-4)" points="23.7369792 63.4387753 26.6942708 63.4387753 26.6942708 60.4861762 23.7369792 60.4861762"></polygon>
            <polygon id="Fill-75" fill="#94AEC4" mask="url(#mask-4)" points="23.7369792 68.4571542 26.6942708 68.4571542 26.6942708 65.5055947 23.7369792 65.5055947"></polygon>
            <polygon id="Fill-76" fill="#94AEC4" mask="url(#mask-4)" points="23.7369792 72.8860529 26.6942708 72.8860529 26.6942708 69.9334537 23.7369792 69.9334537"></polygon>
            <polygon id="Fill-77" fill="#FFFFFF" mask="url(#mask-4)" points="24.8036458 77.1168987 26.6942708 77.1168987 26.6942708 75.2294185 24.8036458 75.2294185"></polygon>
            <polygon id="Fill-78" fill="#FF9975" mask="url(#mask-4)" points="23.8942708 76.2087665 25.7854167 76.2087665 25.7854167 74.3202467 23.8942708 74.3202467"></polygon>
            <polygon id="Fill-79" fill="#FF9975" mask="url(#mask-4)" points="71.6329167 63.4260916 57.5245833 63.4853515 64.619375 51.3563031"></polygon>
            <path d="M57.7773958,41.4528802 L45.1966667,62.8363515 L70.3586458,62.8358317 L57.7773958,41.4528802 Z M42.9221875,64.135911 L57.7773958,38.8865101 L72.633125,64.1353912 L42.9221875,64.135911 Z" id="Fill-80" fill="#576672" mask="url(#mask-4)"></path>
            <path d="M58.1774479,62.8357278 L83.3404687,62.8357278 L70.7592187,41.4527762 L58.1774479,62.8357278 Z M85.6149479,64.1352872 L55.9029687,64.1352872 L70.7592187,38.8864062 L85.6149479,64.1352872 Z" id="Fill-81" fill="#576672" mask="url(#mask-4)"></path>
            <polygon id="Fill-82" fill="#FFFFFF" mask="url(#mask-4)" points="72.9921875 42.6402617 68.5786458 42.6428608 68.5666667 38.2524291 72.9817708 38.2487903"></polygon>
            <path d="M69.2194792,38.9014811 L69.2283333,41.9928731 L72.3397917,41.9907938 L72.3319792,38.8988819 L69.2194792,38.9014811 Z M67.929375,43.2929524 L67.91375,37.6029612 L73.6309375,37.5982828 L73.645,43.2898335 L67.929375,43.2929524 Z" id="Fill-83" fill="#576672" mask="url(#mask-4)"></path>
            <polygon id="Fill-84" fill="#FFFFFF" mask="url(#mask-4)" points="86.6640625 65.6195921 82.25 65.6232308 82.2385417 61.2317595 86.653125 61.2281207"></polygon>
            <path d="M82.8913542,61.8808634 L82.8996875,64.9727753 L86.0111458,64.9701762 L86.0033333,61.8782643 L82.8913542,61.8808634 Z M81.6007292,66.2733744 L81.585625,60.5823436 L87.3022917,60.5776652 L87.316875,66.268696 L81.6007292,66.2733744 Z" id="Fill-85" fill="#576672" mask="url(#mask-4)"></path>
            <polygon id="Fill-86" fill="#FFFFFF" mask="url(#mask-4)" points="73.3627604 65.6195921 68.9481771 65.6232308 68.9367188 61.2317595 73.3518229 61.2281207"></polygon>
            <path d="M69.5894792,61.8808634 L69.5972917,64.9727753 L72.7097917,64.9701762 L72.7019792,61.8782643 L69.5894792,61.8808634 Z M68.2988542,66.2733744 L68.28375,60.5823436 L74.0009375,60.5776652 L74.0155208,66.268696 L68.2988542,66.2733744 Z" id="Fill-87" fill="#576672" mask="url(#mask-4)"></path>
            <polygon id="Fill-88" fill="#FFFFFF" mask="url(#mask-4)" points="59.6982292 65.6195921 55.2836458 65.6232308 55.2711458 61.2317595 59.68625 61.2281207"></polygon>
            <path d="M55.9240104,61.8808634 L55.9328646,64.9727753 L59.0453646,64.9701762 L59.0365104,61.8782643 L55.9240104,61.8808634 Z M54.6339063,66.2733744 L54.6182813,60.5823436 L60.3354688,60.5776652 L60.3510938,66.268696 L54.6339063,66.2733744 Z" id="Fill-89" fill="#576672" mask="url(#mask-4)"></path>
            <polygon id="Fill-90" fill="#FFFFFF" mask="url(#mask-4)" points="66.3482812 53.5509471 61.9347396 53.5540661 61.9222396 49.1631145 66.3373437 49.1589559"></polygon>
            <path d="M62.5750521,49.8122185 L62.5839063,52.9036106 L65.6953646,52.9015313 L65.6875521,49.8090996 L62.5750521,49.8122185 Z M61.2854688,54.2042097 L61.2693229,48.5136987 L66.9865104,48.5085004 L67.0010938,54.2000511 L61.2854688,54.2042097 Z" id="Fill-91" fill="#576672" mask="url(#mask-4)"></path>
            <polygon id="Fill-92" fill="#FFFFFF" mask="url(#mask-4)" points="60.060625 42.6402617 55.6460417 42.6428608 55.6345833 38.2524291 60.0491667 38.2487903"></polygon>
            <path d="M56.2873958,38.9014811 L56.2957292,41.9928731 L59.4077083,41.9907938 L59.3998958,38.8988819 L56.2873958,38.9014811 Z M54.9967708,43.2929524 L54.9816667,37.6029612 L60.6983333,37.5982828 L60.7134375,43.2898335 L54.9967708,43.2929524 Z" id="Fill-93" fill="#576672" mask="url(#mask-4)"></path>
            <polygon id="Fill-94" fill="#FFFFFF" mask="url(#mask-4)" points="45.9523438 65.6201119 41.5377604 65.6232308 41.5263021 61.2322793 45.9414063 61.2286405"></polygon>
            <path d="M42.1791146,61.8813313 L42.1869271,64.9727233 L45.2994271,64.9706441 L45.2916146,61.8787322 L42.1791146,61.8813313 Z M40.8884896,66.2733225 L40.8733854,60.5828115 L46.5905729,60.578133 L46.6051563,66.2691639 L40.8884896,66.2733225 Z" id="Fill-95" fill="#576672" mask="url(#mask-4)"></path>
            <path d="M22.9866146,18.2471145 L3.95067708,18.2471145 L3.95067708,37.2482335 C3.95067708,38.6210881 5.06734375,39.73663 6.44494792,39.73663 L15.9642187,39.73663 L25.4808854,39.73663 L25.4808854,32.3067885 L25.4808854,20.7365507 C25.4808854,19.3626564 24.3642187,18.2471145 22.9866146,18.2471145" id="Fill-96" fill="#F3F7F9" mask="url(#mask-4)"></path>
            <path d="M11.6584896,30.0649965 C11.6782813,30.0837101 11.6980729,30.1024238 11.7178646,30.1216573 C11.6980729,30.1024238 11.6782813,30.0837101 11.6584896,30.0649965 L11.6584896,30.0649965 Z M11.4048438,29.8399128 C11.4136979,29.8471903 11.4209896,29.8529084 11.4293229,29.8596661 C11.4209896,29.8529084 11.4136979,29.8471903 11.4048438,29.8399128 L11.4048438,29.8399128 Z M11.1610937,29.6418599 C11.1767187,29.6548555 11.1939062,29.6673313 11.2105729,29.6813665 C11.1939062,29.6673313 11.1767187,29.6548555 11.1610937,29.6418599 L11.1610937,29.6418599 Z M10.9735937,29.5020273 C10.9793229,29.5056661 10.9829687,29.508785 10.9892187,29.5124238 C10.9829687,29.508785 10.9793229,29.5056661 10.9735937,29.5020273 L10.9735937,29.5020273 Z M10.8308854,29.4011815 C10.8386979,29.4058599 10.8480729,29.4131374 10.8584896,29.4198952 C10.8480729,29.4131374 10.8386979,29.4058599 10.8308854,29.4011815 L10.8308854,29.4011815 Z M25.4808854,32.3064767 L15.0532813,21.8980449 L14.6715104,21.8980449 L14.6314063,21.8980449 L14.3600521,21.8980449 L10.7808854,29.3684326 L12.4621354,31.0464238 C13.0584896,32.0663181 13.2439063,33.2057718 13.2527604,33.2686705 L12.6860938,33.2686705 L12.6860938,34.1955163 L12.3553646,34.1955163 L12.3538021,36.1334194 L15.9642188,39.7363181 L25.4808854,39.7363181 L25.4808854,32.3064767 Z" id="Fill-97" fill="#DBE4EC" mask="url(#mask-4)"></path>
            <path d="M14.37125,21.8726775 L14.6441667,21.8726775 L14.6821875,21.8726775 L15.061875,21.8726775 L18.6384375,29.3451445 C18.6384375,29.3451445 17.5233333,30.0718581 16.99,30.9581577 C16.3483333,32.0237965 16.161875,33.258378 16.161875,33.258378 L14.6821875,33.258378 L14.5795833,33.258378 L13.2696875,33.258378 C13.2696875,33.258378 13.0832292,32.0237965 12.4420833,30.9581577 C11.90875,30.0718581 10.7926042,29.3451445 10.7926042,29.3451445 L14.37125,21.8726775 Z" id="Fill-98" fill="#BCB9BF" mask="url(#mask-4)"></path>
            <path d="M15.6270313,28.482185 C15.6270313,28.983815 15.2197396,29.3903172 14.7171354,29.3903172 C14.2145313,29.3903172 13.8067188,28.983815 13.8067188,28.482185 C13.8067188,28.104793 14.0374479,27.7814626 14.3676563,27.6431894 L14.3676563,21.8851013 L15.0666146,21.8851013 L15.0666146,27.6431894 C15.3963021,27.7814626 15.6270313,28.104793 15.6270313,28.482185" id="Fill-99" fill="#576672" mask="url(#mask-4)"></path>
            <polygon id="Fill-100" fill="#576672" mask="url(#mask-4)" points="12.7010417 34.1893304 16.6583333 34.1893304 16.6583333 33.24637 12.7010417 33.24637"></polygon>
            <polygon id="Fill-101" fill="#576672" mask="url(#mask-4)" points="12.36875 36.1121586 17.0244792 36.1121586 17.0244792 34.1721762 12.36875 34.1721762"></polygon>
        </g>
    </g>
</svg>
