<svg width="112px" height="115px" viewBox="1060 538 112 115" version="1.1" xmlns="http://www.w3.org/2000/svg" xmlns:xlink="http://www.w3.org/1999/xlink">
    <!-- Generator: Sketch 39.1 (31720) - http://www.bohemiancoding.com/sketch -->
    <desc>Created with Sketch.</desc>
    <defs></defs>
    <g id="Page-1" stroke="none" stroke-width="1" fill="none" fill-rule="evenodd" transform="translate(1060.000000, 538.000000)">
        <g id="Group-30" transform="translate(0.000000, 0.461328)">
            <path d="M2.79055612,0.860310991 C1.28152321,0.860310991 0.0591996369,2.07766558 0.0591996369,3.57732525 L0.0591996369,70.1186982 C0.0591996369,71.621112 1.28152321,72.8370895 2.79055612,72.8370895 L108.418012,72.8370895 C109.927737,72.8370895 111.150061,71.621112 111.150061,70.1200753 L111.150061,3.57732525 C111.150061,2.07766558 109.927737,0.860310991 108.418012,0.860310991 L2.79055612,0.860310991 L2.79055612,0.860310991 Z" id="Fill-4" fill="#192E2D"></path>
            <polygon id="Fill-6" fill="#586C7A" points="103.410709 38.0940099 107.2799 38.0940099 107.2799 34.2484639 103.410709 34.2484639"></polygon>
            <polygon id="Fill-8" fill="#586C7A" points="3.21757295 37.103188 5.09434173 37.103188 5.09434173 35.2358431 3.21757295 35.2358431"></polygon>
            <polygon id="Fill-9" fill="#FFCC62" points="7.68580622 69.440202 98.8572943 69.440202 98.8572943 4.25733621 7.68580622 4.25733621"></polygon>
            <polygon id="Fill-10" fill="#F3F7F9" points="59.6179374 33.9769002 50.7202528 33.9762116 50.7202528 32.5991137 59.6179374 32.5998022"></polygon>
            <polygon id="Fill-11" fill="#F3F7F9" points="48.0974857 33.9769002 45.5524211 33.9762116 45.5524211 32.5991137 48.0974857 32.5998022"></polygon>
            <polygon id="Fill-12" fill="#F3F7F9" points="82.3363273 33.9769002 82.3363273 32.5998022 91.2340119 32.5991137 91.2340119 33.9762116"></polygon>
            <polygon id="Fill-13" fill="#F3F7F9" points="93.8558094 33.9769002 93.8558094 32.5998022 96.4022591 32.5991137 96.4022591 33.9762116"></polygon>
            <polygon id="Fill-14" fill="#F3F7F9" points="71.7345921 53.4146378 70.3495229 53.4146378 70.3509079 44.5681605 71.7359771 44.5681605"></polygon>
            <polygon id="Fill-15" fill="#F3F7F9" points="71.7345921 58.5525213 70.3495229 58.5518328 70.3509079 56.0207268 71.7359771 56.0214153"></polygon>
            <polygon id="Fill-16" fill="#F3F7F9" points="70.3509079 21.9801048 70.3495229 13.1329391 71.7345921 13.1329391 71.7359771 21.9801048"></polygon>
            <polygon id="Fill-17" fill="#F3F7F9" points="70.3509079 10.5262304 70.3495229 7.99650142 71.7345921 7.99581287 71.7359771 10.5255418"></polygon>
            <path d="M71.0420575,25.9866336 C67.0004255,25.9866336 63.7129637,29.2558641 63.7129637,33.2735474 C63.7129637,37.2919192 67.0004255,40.5611498 71.0420575,40.5611498 C75.0843819,40.5611498 78.3725362,37.2919192 78.3725362,33.2735474 C78.3725362,29.2558641 75.0843819,25.9866336 71.0420575,25.9866336 M71.0420575,42.6267967 C65.8556658,42.6267967 61.6353599,38.4307792 61.6353599,33.2735474 C61.6353599,28.1163156 65.8556658,23.9209867 71.0420575,23.9209867 C76.2298342,23.9209867 80.45014,28.1163156 80.45014,33.2735474 C80.45014,38.4307792 76.2298342,42.6267967 71.0420575,42.6267967" id="Fill-18" fill="#000000"></path>
            <polygon id="Fill-19" fill="#F3F7F9" points="57.1525142 48.0124891 56.1732703 47.0388808 62.4649471 40.7834134 63.4441911 41.7570216"></polygon>
            <polygon id="Fill-20" fill="#F3F7F9" points="79.5087085 25.7855773 78.5294646 24.8119691 84.821834 18.5551245 85.8010779 19.5287328"></polygon>
            <polygon id="Fill-21" fill="#F3F7F9" points="84.8582613 47.9563035 78.5665844 41.700836 79.5458284 40.7272278 85.8375052 46.9826952"></polygon>
            <polygon id="Fill-22" fill="#F3F7F9" points="62.5024133 25.7284277 56.2107364 19.4729603 57.1899803 18.4993521 63.4816572 24.7548195"></polygon>
            <path d="M71.0819474,107.391094 C70.38318,107.391094 69.8104539,106.821664 69.8104539,106.126918 L69.8104539,93.6862148 C69.8104539,92.9914689 69.4060137,92.0199263 68.9122365,91.5296794 L48.8619747,71.5941209 C48.3681975,71.1024969 48.3681975,70.2982717 48.8619747,69.8066478 L52.5725751,66.1180909 C53.0663523,65.626467 53.8759252,65.626467 54.3697024,66.1180909 L63.6946808,75.3887143 C64.1891505,75.8803383 64.998031,75.8803383 65.4925007,75.3887143 L66.7674569,74.1217842 C67.261234,73.6301602 67.6656742,72.6593062 67.6656742,71.9638717 L67.6656742,33.838915 C67.6656742,33.1448576 68.2384004,32.5754276 68.9364752,32.5754276 L73.8098413,32.5754276 C74.5079161,32.5754276 75.0806423,33.1448576 75.0806423,33.838915 L75.0806423,59.3269324 C75.0806423,60.0209897 75.6526758,60.5911083 76.3514432,60.5911083 L76.5640514,60.5911083 C77.2628188,60.5911083 77.8348524,60.0209897 77.8348524,59.3269324 L77.8348524,54.6923092 C77.8348524,53.9982519 78.406886,53.4281333 79.1063459,53.4281333 L83.5551882,53.4281333 C84.2539556,53.4281333 84.8266817,53.9982519 84.8266817,54.6923092 L84.8266817,58.9048519 C84.8266817,59.5995978 85.3987153,60.1690278 86.0974827,60.1690278 C86.7962501,60.1690278 87.3689763,59.5995978 87.3689763,58.9048519 L87.3689763,54.6923092 C87.3689763,53.9982519 87.9396248,53.4281333 88.6397773,53.4281333 L93.0886196,53.4281333 C93.787387,53.4281333 94.3594206,53.9982519 94.3594206,54.6923092 L94.3594206,59.1155478 C94.3594206,59.8096052 94.9314541,60.3797238 95.6309141,60.3797238 C96.3296815,60.3797238 96.9017151,59.8096052 96.9017151,59.1155478 L96.9017151,54.6923092 C96.9017151,53.9982519 97.4730561,53.4281333 98.1732086,53.4281333 L102.409443,53.4281333 C103.108903,53.4281333 103.680936,53.9982519 103.680936,54.6923092 L103.680936,86.1300783 C103.680936,86.8241357 103.308353,87.8245973 102.853357,88.353403 L100.694727,90.8576556 C100.240424,91.3850841 99.8678408,92.3862343 99.8678408,93.0816688 L99.8678408,106.126918 C99.8678408,106.821664 99.2951147,107.391094 98.5970398,107.391094 L71.0819474,107.391094 Z" id="Fill-23" fill="#F3F7F9"></path>
            <path d="M55.0603671,73.0143909 L64.3853456,82.2857028 C64.8805078,82.7780153 65.6886957,82.7780153 66.1817803,82.2857028 L66.7669721,81.7045675 C67.2607493,81.2136321 67.665882,80.2420895 67.665882,79.5473436 L67.665882,71.9643537 C67.665882,72.6590996 67.2607493,73.6306422 66.7669721,74.1215776 L65.4920159,75.3891963 C64.9982387,75.8808203 64.1893583,75.8808203 63.6948886,75.3891963 L54.3699101,66.1178844 C53.8754404,65.6262604 53.06656,65.6262604 52.5727828,66.1178844 L48.8621824,69.8071298 C48.3677127,70.2980652 48.3677127,71.1029789 48.8621824,71.5939144 L51.7770606,74.492017 L53.2625473,73.0143909 C53.7584021,72.5234555 54.5658974,72.5234555 55.0603671,73.0143909" id="Fill-24" fill="#192E2D"></path>
            <path d="M102.40972,53.4284087 L98.1734856,53.4284087 C97.4733332,53.4284087 96.9019921,53.9978387 96.9019921,54.6925847 L96.9019921,59.1158233 C96.9019921,59.8098806 96.3299585,60.3793106 95.6311911,60.3793106 C94.9310386,60.3793106 94.3596976,59.8098806 94.3596976,59.1158233 L94.3596976,54.6925847 C94.3596976,53.9978387 93.787664,53.4284087 93.0888966,53.4284087 L88.6393617,53.4284087 C87.9392093,53.4284087 87.3685607,53.9978387 87.3685607,54.6925847 L87.3685607,58.9051273 C87.3685607,59.5998732 86.7965272,60.1693032 86.0970672,60.1693032 C85.3982998,60.1693032 84.8262662,59.5998732 84.8262662,58.9051273 L84.8262662,54.6925847 C84.8262662,53.9978387 84.2535401,53.4284087 83.5547727,53.4284087 L79.1059304,53.4284087 C78.407163,53.4284087 77.8351294,53.9978387 77.8351294,54.6925847 L77.8351294,59.3272078 C77.8351294,60.0205766 77.2624033,60.5906952 76.5643284,60.5906952 L76.3517203,60.5906952 C75.6522603,60.5906952 75.0802267,60.0205766 75.0802267,59.3272078 L75.0802267,33.8391904 C75.0802267,33.145133 74.5081931,32.5750145 73.8094257,32.5750145 L68.9367523,32.5750145 C68.2379848,32.5750145 67.6659513,33.145133 67.6659513,33.8391904 L67.6659513,62.274886 C67.6659513,61.5808286 68.2379848,61.0113986 68.9367523,61.0113986 L73.8094257,61.0113986 C74.5081931,61.0113986 75.0802267,61.5808286 75.0802267,62.274886 L75.0802267,62.486959 C75.0802267,63.1803279 75.6522603,63.7504464 76.3517203,63.7504464 L76.5643284,63.7504464 C77.2624033,63.7504464 77.8351294,63.1803279 77.8351294,62.486959 L77.8351294,62.274886 C77.8351294,61.5808286 78.407163,61.0113986 79.1059304,61.0113986 L83.5547727,61.0113986 C84.2535401,61.0113986 84.8262662,61.5326302 84.8262662,62.1709151 C84.8262662,62.8071343 85.3982998,63.3283659 86.0970672,63.3283659 C86.7965272,63.3283659 87.3685607,62.8071343 87.3685607,62.1709151 C87.3685607,61.5326302 87.9392093,61.0113986 88.6393617,61.0113986 L93.0888966,61.0113986 C93.787664,61.0113986 94.3596976,61.5808286 94.3596976,62.274886 C94.3596976,62.9696319 94.9310386,63.5390619 95.6311911,63.5390619 C96.3299585,63.5390619 96.9019921,62.9696319 96.9019921,62.274886 C96.9019921,61.5808286 97.4733332,61.0113986 98.1734856,61.0113986 L102.40972,61.0113986 C103.10918,61.0113986 103.681213,61.5808286 103.681213,62.274886 L103.681213,54.6925847 C103.681213,53.9978387 103.10918,53.4284087 102.40972,53.4284087" id="Fill-25" fill="#192E2D"></path>
            <path d="M103.220609,111.892896 C103.220609,112.802469 102.478211,113.540593 101.561988,113.540593 L67.4435784,113.54197 C66.5280477,113.54197 65.784958,112.802469 65.784958,111.892896 L65.784958,96.6959312 C65.784958,95.786358 66.5280477,95.0468564 67.4435784,95.0468564 L101.561988,95.0468564 C102.478211,95.0468564 103.220609,95.7870465 103.220609,96.6959312 L103.220609,111.892896 Z" id="Fill-26" fill="#192E2D"></path>
            <polygon id="Fill-27" fill="#000000" points="39.3291666 49.8410686 38.2778991 48.0597924 51.1084877 40.5725108 52.1597552 42.353787"></polygon>
            <path d="M33.3003066,53.4139492 L32.2469615,51.6333616 L37.0233726,48.841984 L38.0760252,50.6225717 L33.3003066,53.4139492 Z M23.7474843,58.9960157 L22.6941391,57.2154281 L27.4705503,54.4247391 L28.5238954,56.2053267 L23.7474843,58.9960157 Z M14.1953545,64.5787708 L13.1420093,62.7981832 L17.9184205,60.0074942 L18.9710731,61.7880818 L14.1953545,64.5787708 Z" id="Fill-28" fill="#000000"></path>
            <polygon id="Fill-29" fill="#000000" points="49.579579 38.7924052 56.4924595 38.9700508 52.880199 44.8337339"></polygon>
        </g>
    </g>
</svg>
