
<svg width="11px" height="9px" viewBox="4 6 11 9" version="1.1" xmlns="http://www.w3.org/2000/svg" xmlns:xlink="http://www.w3.org/1999/xlink">
    <!-- Generator: Sketch 40.3 (33839) - http://www.bohemiancoding.com/sketch -->
    <desc>Created with Sketch.</desc>
    <defs></defs>
    <path d="M14.9634167,7.71330688 C14.5911944,7.87044974 14.1911944,7.97679894 13.77175,8.02441799 C14.2000833,7.77997354 14.5295278,7.39293651 14.6839722,6.9312963 C14.2836944,7.15775132 13.8398056,7.32230159 13.3670278,7.41092593 C12.9884167,7.02679894 12.4489722,6.78685185 11.8523056,6.78685185 C10.7064722,6.78685185 9.77758333,7.67177249 9.77758333,8.76277778 C9.77758333,8.91806878 9.79591667,9.06833333 9.83119444,9.21304233 C8.10702778,9.1307672 6.57869444,8.34425926 5.55508333,7.14822751 C5.37647222,7.44055556 5.27425,7.77997354 5.27425,8.14187831 C5.27425,8.82732804 5.64036111,9.43261905 6.19675,9.7865873 C5.85702778,9.77653439 5.53730556,9.6871164 5.25730556,9.5392328 L5.25730556,9.56410053 C5.25730556,10.5215079 5.97258333,11.3201852 6.92147222,11.5016667 C6.74758333,11.5466402 6.56369444,11.5712434 6.37480556,11.5712434 C6.24147222,11.5712434 6.11091667,11.558545 5.98452778,11.5355291 C6.24841667,12.3204497 7.01452778,12.8916138 7.92230556,12.9080159 C7.21258333,13.4379101 6.31813889,13.7537831 5.34563889,13.7537831 C5.17841667,13.7537831 5.01341667,13.7439947 4.85119444,13.7260053 C5.76925,14.2863228 6.85952778,14.6133069 8.03175,14.6133069 C11.8475833,14.6133069 13.9345278,11.603254 13.9345278,8.99187831 C13.9345278,8.90642857 13.9320278,8.82124339 13.9286944,8.73579365 C14.3331389,8.45775132 14.6848056,8.10960317 14.9634167,7.71330688" id="Fill-4" stroke="none" fill="#FFFFFF" fill-rule="evenodd"></path>
</svg>
